<?xml version="1.0" standalone="no"?>
<!DOCTYPE svg PUBLIC "-//W3C//DTD SVG 20010904//EN"
 "http://www.w3.org/TR/2001/REC-SVG-20010904/DTD/svg10.dtd">
<svg version="1.0" xmlns="http://www.w3.org/2000/svg"
 width="512.000000pt" height="512.000000pt" viewBox="0 0 512.000000 512.000000"
 preserveAspectRatio="xMidYMid meet">
<metadata>
Created by potrace 1.11, written by Peter Selinger 2001-2013
</metadata>
<g transform="translate(0.000000,512.000000) scale(0.100000,-0.100000)"
fill="#000000" stroke="none">
<path d="M1927 4546 c-277 -141 -450 -236 -817 -448 -289 -167 -294 -171 -287
-215 3 -19 136 -269 295 -556 159 -287 414 -748 567 -1025 l278 -502 20 32
c36 60 34 90 -13 181 -36 68 -44 96 -51 166 -7 63 -18 104 -46 165 -37 81 -37
81 -39 226 -1 143 -22 303 -49 380 -16 46 -48 97 -126 202 -81 110 -81 166 1
208 57 29 99 26 156 -12 101 -68 197 -224 249 -402 14 -50 27 -92 30 -94 6 -7
98 138 119 188 43 104 97 212 130 265 44 68 111 105 191 105 134 0 190 -96
150 -258 -25 -106 -11 -123 115 -141 69 -9 78 -13 113 -50 35 -39 37 -43 37
-110 0 -78 6 -87 82 -110 51 -17 85 -52 94 -97 5 -30 23 -56 79 -114 l73 -75
7 -128 c21 -357 -55 -538 -297 -710 -182 -129 -282 -266 -388 -532 -16 -41
-48 -111 -70 -156 l-41 -80 102 -186 c132 -240 130 -238 211 -238 62 0 68 3
311 133 136 73 291 158 344 190 54 32 216 123 361 202 288 158 332 190 332
239 0 21 -51 122 -166 328 -283 506 -1483 2665 -1614 2903 -130 238 -145 260
-168 260 -7 0 -132 -60 -275 -134z"/>
</g>
</svg>
