<?xml version="1.0" encoding="utf-8"?>
<!-- Generator: Adobe Illustrator 15.0.0, SVG Export Plug-In . SVG Version: 6.00 Build 0)  -->
<!DOCTYPE svg PUBLIC "-//W3C//DTD SVG 1.1//EN" "http://www.w3.org/Graphics/SVG/1.1/DTD/svg11.dtd">
<svg version="1.1" id="Layer_1" xmlns="http://www.w3.org/2000/svg" xmlns:xlink="http://www.w3.org/1999/xlink" x="0px" y="0px"
	 width="550px" height="74px" viewBox="0 0 550 74" enable-background="new 0 0 550 74" xml:space="preserve">
<g>
	<path fill="#272D40" d="M6.459,16.375c0-7.586-0.15-8.337-3.305-8.788l-2.028-0.3C0.451,6.911,0.3,4.657,1.427,4.582
		C7.136,4.207,12.619,3.906,20.13,3.906c7.211,0,12.018,0.827,15.323,2.779c3.229,1.953,5.183,5.108,5.183,9.54
		c0,6.31-5.333,8.789-7.662,9.389c-0.751,0.151-1.502,0.451-1.502,0.827c0,0.226,0.375,0.451,1.051,0.601
		c5.934,1.277,10.967,5.183,11.042,12.469c0.075,6.91-4.056,10.966-8.788,12.619c-4.732,1.652-10.366,1.877-14.948,1.877
		c-2.704,0-5.558-0.3-7.736-0.3c-3.681,0-7.361,0.075-11.643,0.226c-0.601-0.451-0.601-2.403,0-2.629l2.178-0.451
		c3.38-0.676,3.831-1.201,3.831-7.962V16.375z M16.825,23.661c0,1.953,0.075,2.104,3.981,2.104c6.46,0,8.863-4.132,8.863-8.638
		c0-6.535-4.056-9.765-9.239-9.765c-3.53,0-3.605,0.601-3.605,3.906V23.661z M16.825,41.012c0,5.859,0.751,9.54,6.61,9.54
		c5.558,0,8.487-4.282,8.487-10.366c0-6.535-3.755-11.117-10.966-11.117c-4.131,0-4.131,0.075-4.131,3.08V41.012z"/>
	<path fill="#272D40" d="M70.006,43.415c-0.3,5.108,1.878,6.461,3.38,6.461c0.901,0,1.653-0.226,2.854-0.902
		c0.676,0.151,1.127,1.052,0.901,1.728c-0.901,1.202-4.432,4.057-8.713,4.057c-2.628,0-4.281-0.901-6.309-2.629
		c-0.526-0.451-0.826-0.601-1.202-0.601c-0.375,0-0.826,0.3-1.577,0.825c-1.352,0.978-3.605,2.404-6.385,2.404
		c-4.356,0-8.413-2.629-8.413-7.887c0-3.831,2.329-6.159,7.812-7.812c2.854-0.901,4.958-1.503,7.061-2.104
		c1.352-0.375,1.728-0.901,1.802-1.502c0.076-0.826,0.15-1.653,0.15-2.554c0-2.854-1.126-6.459-4.356-6.459
		c-1.803,0-3.38,1.051-3.906,4.281c-0.15,1.202-0.601,1.878-1.277,2.404c-1.126,0.827-4.056,1.728-5.408,1.728
		c-1.277,0-1.728-0.826-1.728-1.878c0-1.953,1.802-4.356,3.605-5.784c2.554-2.028,7.286-4.582,12.619-4.582
		c6.31,0,9.99,3.155,9.615,10.891L70.006,43.415z M60.992,41.463c0.075-1.202,0-1.427-0.526-1.353
		c-3.38,0.451-6.31,1.729-6.31,5.259c0,2.403,1.728,4.507,3.831,4.507c2.329,0,2.779-1.353,2.854-3.682L60.992,41.463z"/>
	<path fill="#272D40" d="M78.118,11.943c0-3.004,0-3.831-1.502-4.732l-1.277-0.751c-0.526-0.451-0.526-1.803,0-2.253
		C78.418,3.455,83,1.652,86.831,0c0.451,0,0.977,0.15,1.277,0.526c-0.15,3.08-0.226,6.234-0.226,10.966v23.586
		c0,0.826,0.226,1.051,1.052,1.051c1.277,0,2.854-0.375,4.356-2.103l3.155-3.681c1.427-1.728,1.803-2.554,1.803-3.004
		c0-0.375-0.751-0.676-1.427-0.751l-1.878-0.3c-0.676-0.676-0.601-2.329,0.15-2.629h1.803c3.53,0,9.765-0.375,14.196-1.051
		c0.751,0.375,0.826,2.028,0.3,2.628l-2.403,0.526c-1.427,0.3-3.004,1.051-5.033,2.628c-2.854,2.178-3.981,3.305-5.033,4.357
		c-0.375,0.45-0.451,0.75-0.451,0.976s0.15,0.676,0.526,1.276c1.352,2.404,7.962,12.62,9.84,14.347
		c1.052,0.977,2.479,1.352,4.432,1.728l1.127,0.226c0.601,0.525,0.451,2.328-0.301,2.629c-2.329-0.15-5.107-0.226-9.464-0.226
		c-4.432,0-7.136,0.075-9.239,0.226c-0.751-0.376-0.901-1.953-0.3-2.629l0.977-0.226c0.751-0.15,1.202-0.3,1.202-0.602
		c0-0.3-0.676-1.502-1.277-2.403l-5.333-8.111c-0.526-0.827-1.127-1.127-1.878-1.127c-0.526,0-0.901,0.375-0.901,1.802v4.357
		c0,5.258,0.3,5.858,2.929,6.159l1.202,0.15c0.601,0.451,0.601,2.178-0.075,2.629c-2.404-0.15-5.559-0.226-9.014-0.226
		s-6.535,0.075-9.164,0.226c-0.676-0.451-0.676-2.178-0.075-2.629l1.427-0.15c2.704-0.301,3.005-0.901,3.005-6.159V11.943z"/>
	<path fill="#272D40" d="M122.886,35.904c-1.728,0-1.878,0.15-1.878,1.352c0,5.633,3.605,11.117,10.591,11.117
		c2.104,0,4.958-0.451,6.985-3.905c0.826-0.15,1.953,0.45,1.953,1.727c-3.08,6.385-8.638,8.563-13.145,8.563
		c-10.141,0-15.624-7.136-15.624-15.323c0-9.464,6.835-16.825,16.225-16.825c7.812,0,12.019,5.033,12.019,10.816
		c0,1.427-0.376,2.479-2.705,2.479H122.886z M127.844,32.599c1.051,0,2.253-0.15,3.08-0.676c0.375-0.226,0.525-0.977,0.525-1.728
		c0-2.479-1.427-4.131-3.981-4.131c-3.154,0-5.859,3.004-5.859,5.408c0,1.052,1.052,1.127,3.456,1.127H127.844z"/>
	<path fill="#272D40" d="M161.419,23.661c4.732,0,8.487-0.075,13.295-0.225c0.826,0.075,0.751,2.329,0.226,2.629l-1.127,0.225
		c-1.728,0.376-2.779,0.751-2.779,1.127c0,0.601,0.15,1.051,0.601,2.329c1.352,3.605,3.455,8.487,5.107,12.094
		c1.803-4.357,3.004-8.038,4.206-11.493c0.451-1.352,0.676-2.404,0.676-2.929c0-0.376-0.601-0.751-1.878-1.052l-1.276-0.3
		c-0.451-0.526-0.451-2.329,0.3-2.629c2.479,0.15,4.281,0.225,6.159,0.225c2.178,0,4.131-0.075,5.784-0.225
		c0.676,0.3,0.826,1.953,0.226,2.629l-1.052,0.225c-2.479,0.526-3.004,1.277-4.207,4.056c-3.455,7.662-6.91,15.924-10.065,23.886
		c-0.451,0.451-0.977,0.526-1.728,0.526s-1.276-0.075-1.727-0.526c-1.578-4.056-5.483-12.844-7.737-17.651
		c-1.953,3.906-6.46,13.896-8.188,17.651c-0.451,0.451-0.976,0.526-1.728,0.526s-1.277-0.075-1.728-0.526
		c-3.605-8.487-7.286-17.125-10.967-24.937c-1.051-2.179-1.802-2.479-3.08-2.854l-1.352-0.375c-0.526-0.601-0.526-2.253,0.226-2.629
		c3.08,0.15,5.483,0.225,8.638,0.225H161.419z M159.391,26.74c-1.051-0.225-2.252-0.3-3.605-0.3c-2.403,0-3.831,0.3-3.831,1.126
		c0,0.451,0.225,1.352,0.676,2.479c1.052,2.628,4.056,9.389,5.333,11.793c1.052-2.028,3.606-7.437,3.981-8.939
		c0.225-0.976,0.225-1.652,0.225-2.253C162.17,29.444,160.894,27.041,159.391,26.74z"/>
	<path fill="#272D40" d="M199.202,35.904c-1.728,0-1.878,0.15-1.878,1.352c0,5.633,3.605,11.117,10.591,11.117
		c2.104,0,4.958-0.451,6.985-3.905c0.827-0.15,1.954,0.45,1.954,1.727c-3.08,6.385-8.638,8.563-13.146,8.563
		c-10.14,0-15.623-7.136-15.623-15.323c0-9.464,6.835-16.825,16.224-16.825c7.812,0,12.019,5.033,12.019,10.816
		c0,1.427-0.375,2.479-2.704,2.479H199.202z M204.159,32.599c1.051,0,2.253-0.15,3.08-0.676c0.375-0.226,0.526-0.977,0.526-1.728
		c0-2.479-1.427-4.131-3.981-4.131c-3.155,0-5.859,3.004-5.859,5.408c0,1.052,1.051,1.127,3.455,1.127H204.159z"/>
	<path fill="#272D40" d="M219.933,11.943c0-3.004,0-3.831-1.502-4.732l-1.277-0.751c-0.526-0.451-0.526-1.803,0-2.253
		c3.23-0.751,7.736-2.554,11.492-4.207c0.451,0,0.977,0.15,1.277,0.526c-0.15,3.08-0.225,6.234-0.225,10.966v33.501
		c0,5.258,0.3,5.858,2.929,6.159l1.277,0.15c0.601,0.451,0.601,2.178-0.076,2.629c-2.478-0.15-5.633-0.226-9.013-0.226
		c-3.23,0-6.384,0.075-9.014,0.226c-0.676-0.451-0.676-2.178-0.075-2.629l1.427-0.15c2.479-0.226,2.779-0.901,2.779-6.159V11.943z"
		/>
	<path fill="#272D40" d="M237.81,11.943c0-3.004,0-3.831-1.501-4.732l-1.277-0.751c-0.526-0.451-0.526-1.803,0-2.253
		c3.23-0.751,7.737-2.554,11.493-4.207c0.451,0,0.977,0.15,1.277,0.526c-0.15,3.08-0.226,6.234-0.226,10.966v33.501
		c0,5.258,0.3,5.858,2.93,6.159l1.277,0.15c0.601,0.451,0.601,2.178-0.075,2.629c-2.479-0.15-5.634-0.226-9.014-0.226
		c-3.229,0-6.384,0.075-9.013,0.226c-0.676-0.451-0.676-2.178-0.075-2.629l1.427-0.15c2.479-0.226,2.779-0.901,2.779-6.159V11.943z"
		/>
	<path fill="#272D40" d="M273.564,16.3c0-7.586-0.15-8.488-3.305-8.864l-2.329-0.3c-0.676-0.375-0.676-2.028,0.15-2.554
		c4.957-0.375,10.817-0.676,17.351-0.676c6.385,0,10.592,0.751,13.746,1.953c4.582,1.728,9.164,5.708,9.164,12.994
		c0,12.319-12.395,14.122-16.375,14.122c-0.901,0-1.577,0-2.404-0.075c-0.601-0.375-0.751-1.577-0.225-2.027
		c6.234-1.954,7.512-6.385,7.512-11.943c0-5.559-2.855-11.568-9.615-11.568c-2.779,0-2.929,0.827-2.929,3.831V42.89
		c0,6.986,0.45,7.586,3.83,8.113l2.403,0.375c0.827,0.376,0.827,2.103,0,2.554c-4.206-0.15-7.887-0.226-11.492-0.226
		s-7.211,0.075-11.267,0.226c-0.827-0.451-0.977-2.178-0.15-2.554l2.103-0.375c3.38-0.602,3.831-1.127,3.831-8.113V16.3z"/>
	<path fill="#272D40" d="M312.398,11.943c0-3.004,0-3.831-1.503-4.732l-1.276-0.751c-0.526-0.451-0.526-1.803,0-2.253
		c3.229-0.751,7.736-2.554,11.492-4.207c0.451,0,0.977,0.15,1.277,0.526c-0.15,3.08-0.226,6.234-0.226,10.966v33.501
		c0,5.258,0.301,5.858,2.93,6.159l1.276,0.15c0.601,0.451,0.601,2.178-0.075,2.629c-2.479-0.15-5.634-0.226-9.014-0.226
		c-3.229,0-6.385,0.075-9.014,0.226c-0.676-0.451-0.676-2.178-0.075-2.629l1.428-0.15c2.479-0.226,2.779-0.901,2.779-6.159V11.943z"
		/>
	<path fill="#272D40" d="M352.434,43.415c-0.301,5.108,1.878,6.461,3.381,6.461c0.9,0,1.652-0.226,2.854-0.902
		c0.677,0.151,1.127,1.052,0.901,1.728c-0.901,1.202-4.432,4.057-8.713,4.057c-2.629,0-4.281-0.901-6.31-2.629
		c-0.525-0.451-0.826-0.601-1.202-0.601c-0.375,0-0.826,0.3-1.577,0.825c-1.352,0.978-3.605,2.404-6.385,2.404
		c-4.356,0-8.412-2.629-8.412-7.887c0-3.831,2.328-6.159,7.812-7.812c2.854-0.901,4.957-1.503,7.061-2.104
		c1.353-0.375,1.728-0.901,1.803-1.502c0.075-0.826,0.15-1.653,0.15-2.554c0-2.854-1.127-6.459-4.356-6.459
		c-1.803,0-3.381,1.051-3.906,4.281c-0.15,1.202-0.601,1.878-1.276,2.404c-1.127,0.827-4.057,1.728-5.408,1.728
		c-1.277,0-1.728-0.826-1.728-1.878c0-1.953,1.802-4.356,3.605-5.784c2.553-2.028,7.285-4.582,12.618-4.582
		c6.31,0,9.99,3.155,9.615,10.891L352.434,43.415z M343.42,41.463c0.075-1.202,0-1.427-0.525-1.353
		c-3.381,0.451-6.31,1.729-6.31,5.259c0,2.403,1.728,4.507,3.831,4.507c2.328,0,2.779-1.353,2.854-3.682L343.42,41.463z"/>
	<path fill="#272D40" d="M357.842,52.43c-0.826-1.503-1.353-5.108-1.202-8.488c0.45-0.751,2.104-0.826,2.554-0.15
		c0.977,3.08,3.831,7.512,7.661,7.512c2.254,0,3.906-1.353,3.906-3.906c0-2.779-2.403-4.356-4.957-5.634
		c-4.507-2.253-7.736-4.957-7.736-9.464c0-6.535,5.482-9.689,11.942-9.689c3.831,0,7.211,0.976,8.037,1.577
		c0.751,1.652,1.127,4.657,1.127,7.511c-0.301,0.827-2.179,0.827-2.629,0.301c-1.503-4.356-3.381-5.934-5.859-5.934
		c-2.178,0-3.756,1.277-3.756,3.305c0,1.728,1.428,3.155,4.808,4.808c5.108,2.479,8.263,5.634,8.263,10.516
		c-0.075,6.686-5.784,10.065-12.845,10.065C362.874,54.758,359.869,54.006,357.842,52.43z"/>
	<path fill="#272D40" d="M395.322,27.717c-0.977,0-1.052,0.075-1.052,1.728v11.268c0,4.206,0,8.863,5.258,8.863
		c1.052,0,2.254-0.526,3.155-1.127c0.751,0.226,1.202,1.052,1.052,1.953c-2.104,2.254-6.159,4.356-10.816,4.356
		c-6.234,0-8.413-3.605-8.413-8.563v-16.75c0-1.577-0.075-1.728-1.427-1.728h-2.329c-0.826-0.3-1.052-1.803-0.45-2.329
		c2.328-0.826,4.432-2.178,6.234-3.38c1.352-0.976,3.229-2.554,5.559-5.859c0.525-0.301,1.878-0.225,2.253,0.375v5.634
		c0,1.427,0.075,1.502,1.427,1.502h6.686c0.376,0.3,0.602,0.751,0.602,1.427c0,0.826-0.226,2.178-0.978,2.629H395.322z"/>
	<path fill="#272D40" d="M413.5,35.904c-1.728,0-1.878,0.15-1.878,1.352c0,5.633,3.605,11.117,10.592,11.117
		c2.103,0,4.957-0.451,6.985-3.905c0.826-0.15,1.952,0.45,1.952,1.727c-3.079,6.385-8.638,8.563-13.145,8.563
		c-10.141,0-15.624-7.136-15.624-15.323c0-9.464,6.836-16.825,16.225-16.825c7.812,0,12.019,5.033,12.019,10.816
		c0,1.427-0.376,2.479-2.704,2.479H413.5z M418.458,32.599c1.052,0,2.253-0.15,3.079-0.676c0.376-0.226,0.525-0.977,0.525-1.728
		c0-2.479-1.427-4.131-3.98-4.131c-3.155,0-5.859,3.004-5.859,5.408c0,1.052,1.052,1.127,3.456,1.127H418.458z"/>
	<path fill="#272D40" d="M434.833,33.801c0-3.004,0-3.906-1.428-4.807l-1.052-0.676c-0.525-0.451-0.525-1.803,0-2.253
		c3.455-0.977,8.639-3.005,10.967-4.507c0.601,0,1.052,0.226,1.353,0.676c-0.15,1.502-0.301,2.554-0.301,3.229
		c0,0.526,0.15,0.751,0.751,0.901c2.028-1.277,4.206-3.755,7.361-3.755c2.028,0,4.131,1.577,4.131,4.431
		c0,3.456-2.403,4.883-4.807,4.883c-1.052,0-1.953-0.451-2.93-1.353c-1.728-1.427-2.404-1.502-2.854-1.502
		c-1.052,0-1.427,1.652-1.427,4.507v11.568c0,5.258,0.3,5.859,2.779,6.084l2.403,0.226c0.601,0.45,0.601,2.178-0.075,2.629
		c-3.605-0.15-6.61-0.226-10.141-0.226c-3.079,0-6.385,0.075-8.863,0.226c-0.676-0.451-0.676-2.179-0.075-2.629l1.428-0.15
		c2.479-0.226,2.779-0.901,2.779-6.159V33.801z"/>
	<path fill="#272D40" d="M469.459,44.993c0,5.258,0.301,5.934,2.779,6.159l1.427,0.15c0.602,0.451,0.602,2.178-0.075,2.629
		c-2.629-0.15-5.558-0.226-9.014-0.226c-3.38,0-6.534,0.075-9.013,0.226c-0.677-0.451-0.677-2.178-0.075-2.629l1.427-0.15
		c2.479-0.226,2.779-0.901,2.779-6.159V33.651c0-3.004,0-3.906-1.427-4.807l-1.052-0.676c-0.526-0.451-0.526-1.803,0-2.253
		c3.53-0.977,8.863-3.004,11.116-4.356c0.602,0,1.052,0.226,1.353,0.676c-0.15,2.253-0.226,5.558-0.226,8.938V44.993z
		 M470.06,11.042c0,3.605-2.778,5.483-5.633,5.483c-3.306,0-5.259-2.253-5.259-5.333c0-3.305,2.63-5.483,5.634-5.483
		C467.957,5.708,470.06,8.037,470.06,11.042z"/>
	<path fill="#272D40" d="M478.173,33.651c0-3.004,0-3.906-1.428-4.807l-1.052-0.676c-0.525-0.451-0.525-1.803,0-2.253
		c3.53-0.977,8.938-3.004,11.117-4.356c0.601,0,1.051,0.226,1.352,0.676c0,1.051-0.225,2.854-0.225,3.379
		c0,0.451,0.149,0.602,0.375,0.602s0.977-0.376,1.427-0.602c1.653-0.976,5.184-3.004,8.639-3.004c6.234,0,9.389,4.282,9.389,9.464
		v12.919c0,5.258,0.301,5.858,3.005,6.159l1.202,0.15c0.601,0.451,0.601,2.178-0.075,2.629c-2.328-0.15-5.483-0.226-9.089-0.226
		c-3.005,0-5.935,0.075-8.112,0.226c-0.676-0.451-0.676-2.178-0.075-2.629l1.353-0.226c1.727-0.3,2.027-0.826,2.027-4.957V33.425
		c0-2.929-1.502-5.333-5.258-5.333c-2.104,0-3.605,0.976-4.206,1.802c-0.451,0.526-0.601,1.427-0.601,2.779V46.12
		c0,4.131,0.3,4.807,2.178,5.032l1.202,0.15c0.601,0.451,0.601,2.178-0.075,2.629c-2.329-0.15-4.732-0.226-8.338-0.226
		c-3.154,0-6.234,0.075-8.863,0.226c-0.676-0.451-0.676-2.178-0.075-2.629l1.202-0.15c2.704-0.301,3.005-0.901,3.005-6.159V33.651z"
		/>
	<path fill="#272D40" d="M547.126,25.388c0.525,0.451,0.676,1.052,0.676,1.878c0,1.202-0.376,2.554-1.127,3.004h-5.558
		c0.149,0.676,0.225,1.353,0.225,2.629c0,5.935-3.53,13.145-15.397,13.145c-1.202,0-2.254-0.149-3.08-0.225
		c-0.751,0.301-1.277,0.901-1.277,1.803c0,1.652,1.578,2.704,3.831,2.704c2.554,0,5.634-0.15,9.164-0.15
		c5.633,0,11.643,1.502,11.643,9.089c0,4.732-2.854,8.938-6.761,11.342c-3.905,2.329-8.788,3.305-13.145,3.305
		c-10.816,0-14.723-4.957-14.723-9.614c0-1.802,1.127-3.005,2.404-3.756c1.502-0.901,2.854-1.878,3.681-2.328
		c0.901-0.525,0.676-0.901,0.075-1.052c-2.779-0.901-4.657-3.38-4.657-6.009c0-0.601,0.149-1.202,0.525-1.577
		c2.104-1.353,4.356-3.08,4.808-3.531c0.676-0.525,0.977-0.976,0.601-1.652c-3.756-1.502-6.385-5.106-6.385-9.689
		c0-6.235,4.883-12.093,14.647-12.093c4.432,0,8.413,1.277,11.192,2.779H547.126z M525.944,57.912c-2.028,0-3.531,0.451-4.207,0.977
		c-0.751,0.677-1.052,1.652-1.052,2.629c0,5.108,3.831,8.413,9.765,8.413c4.732,0,7.887-2.329,7.887-5.934
		c0-4.357-3.229-6.085-7.36-6.085H525.944z M527.597,42.664c2.328,0,4.281-2.178,4.281-7.662c0-6.084-2.179-8.938-4.883-8.938
		c-2.328,0-4.582,2.253-4.582,7.361C522.413,39.134,524.592,42.664,527.597,42.664z"/>
</g>
</svg>
