<?xml version="1.0" encoding="utf-8"?>
<!-- Generator: Adobe Illustrator 15.0.0, SVG Export Plug-In . SVG Version: 6.00 Build 0)  -->
<!DOCTYPE svg PUBLIC "-//W3C//DTD SVG 1.1//EN" "http://www.w3.org/Graphics/SVG/1.1/DTD/svg11.dtd">
<svg version="1.1" id="Layer_1" xmlns="http://www.w3.org/2000/svg" xmlns:xlink="http://www.w3.org/1999/xlink" x="0px" y="0px"
	 width="1000px" height="278px" viewBox="0 0 1000 278" enable-background="new 0 0 1000 278" xml:space="preserve">
<g>
	<path fill="#4E5A80" d="M21.227,90.295c0-24.601-0.487-27.523-10.717-28.741l-7.55-0.974c-2.192-1.218-2.192-6.576,0.487-8.282
		c16.075-1.217,35.074-2.192,56.264-2.192c20.704,0,34.343,2.437,44.573,6.333C119.142,62.041,134,74.951,134,98.577
		c0,39.945-40.189,45.79-53.098,45.79c-2.923,0-5.115,0-7.794-0.243c-1.949-1.217-2.436-5.115-0.731-6.577
		c20.217-6.333,24.357-20.703,24.357-38.727s-9.255-37.509-31.177-37.509c-9.012,0-9.499,2.68-9.499,12.422v102.786
		c0,22.653,1.461,24.602,12.422,26.308l7.794,1.218c2.68,1.218,2.68,6.82,0,8.28c-13.64-0.487-25.575-0.729-37.266-0.729
		s-23.382,0.242-36.535,0.729c-2.679-1.46-3.166-7.062-0.487-8.28l6.819-1.218c10.961-1.948,12.422-3.654,12.422-26.308V90.295z"/>
	<path fill="#4E5A80" d="M156.897,76.168c0-9.744,0-12.422-4.872-15.346l-4.14-2.435c-1.705-1.462-1.705-5.846,0-7.308
		c10.473-2.437,25.087-8.281,37.266-13.641c1.461,0,3.166,0.488,4.141,1.706c-0.487,9.986-0.73,20.216-0.73,35.561v108.631
		c0,17.052,0.974,19,9.499,19.973l4.141,0.487c1.949,1.464,1.949,7.066-0.244,8.526c-8.038-0.487-18.268-0.729-29.229-0.729
		c-10.473,0-20.703,0.242-29.228,0.729c-2.192-1.46-2.192-7.062-0.244-8.526l4.628-0.487c8.038-0.729,9.012-2.921,9.012-19.973
		V76.168z"/>
	<path fill="#4E5A80" d="M296.464,178.224c-0.975,16.563,6.089,20.948,10.96,20.948c2.923,0,5.358-0.73,9.255-2.924
		c2.192,0.488,3.654,3.412,2.923,5.603c-2.923,3.896-14.37,13.152-28.254,13.152c-8.525,0-13.884-2.921-20.459-8.522
		c-1.705-1.464-2.68-1.952-3.897-1.952c-1.218,0-2.68,0.976-5.115,2.682c-4.384,3.166-11.691,7.793-20.704,7.793
		c-14.127,0-27.28-8.522-27.28-25.575c0-12.422,7.551-19.972,25.332-25.331c9.255-2.924,16.076-4.871,22.895-6.82
		c4.384-1.218,5.602-2.924,5.846-4.871c0.243-2.678,0.487-5.358,0.487-8.281c0-9.255-3.653-20.947-14.127-20.947
		c-5.845,0-10.96,3.41-12.665,13.884c-0.488,3.896-1.949,6.088-4.141,7.794c-3.654,2.68-13.153,5.603-17.537,5.603
		c-4.141,0-5.602-2.68-5.602-6.09c0-6.333,5.846-14.126,11.691-18.755c8.281-6.576,23.626-14.857,40.92-14.857
		c20.459,0,32.394,10.229,31.177,35.317L296.464,178.224z M267.235,171.892c0.244-3.898,0-4.628-1.705-4.385
		c-10.961,1.461-20.459,5.603-20.459,17.049c0,7.797,5.602,14.616,12.422,14.616c7.55,0,9.011-4.385,9.255-11.936L267.235,171.892z"
		/>
	<path fill="#4E5A80" d="M323.743,207.452c-2.679-4.871-4.384-16.562-3.897-27.524c1.462-2.434,6.82-2.678,8.282-0.486
		c3.166,9.986,12.421,24.356,24.844,24.356c7.307,0,12.666-4.384,12.666-12.664c0-9.013-7.794-14.128-16.076-18.269
		c-14.614-7.308-25.088-16.076-25.088-30.69c0-21.19,17.781-31.419,38.729-31.419c12.421,0,23.382,3.166,26.062,5.114
		c2.435,5.359,3.653,15.101,3.653,24.357c-0.975,2.681-7.063,2.681-8.524,0.975c-4.872-14.127-10.961-19.243-18.999-19.243
		c-7.064,0-12.178,4.142-12.178,10.718c0,5.603,4.627,10.231,15.588,15.588c16.562,8.038,26.792,18.268,26.792,34.1
		c-0.243,21.68-18.755,32.639-41.65,32.639C340.062,215.003,330.32,212.567,323.743,207.452z"/>
	<path fill="#4E5A80" d="M455.025,127.318c-3.167,0-3.41,0.243-3.41,5.602v36.536c0,13.64,0,28.74,17.05,28.74
		c3.41,0,7.307-1.703,10.229-3.653c2.436,0.732,3.897,3.411,3.41,6.335c-6.819,7.305-19.973,14.125-35.074,14.125
		c-20.216,0-27.28-11.692-27.28-27.767V132.92c0-5.116-0.244-5.602-4.627-5.602h-7.551c-2.68-0.974-3.41-5.846-1.461-7.551
		c7.55-2.679,14.37-7.062,20.215-10.961c4.385-3.166,10.475-8.28,18.025-18.998c1.705-0.974,6.089-0.73,7.307,1.218v18.269
		c0,4.627,0.244,4.872,4.628,4.872h21.678c1.218,0.974,1.948,2.435,1.948,4.626c0,2.68-0.73,7.064-3.167,8.526H455.025z"/>
	<path fill="#4E5A80" d="M523.713,153.866c-5.604,0-6.09,0.486-6.09,4.386c0,18.267,11.691,36.048,34.344,36.048
		c6.82,0,16.076-1.46,22.652-12.666c2.679-0.488,6.333,1.462,6.333,5.603c-9.987,20.704-28.012,27.767-42.624,27.767
		c-32.883,0-50.664-23.14-50.664-49.688c0-30.691,22.165-54.56,52.611-54.56c25.332,0,38.972,16.319,38.972,35.073
		c0,4.629-1.218,8.038-8.77,8.038H523.713z M539.788,143.148c3.41,0,7.308-0.485,9.987-2.191c1.218-0.73,1.705-3.167,1.705-5.602
		c0-8.037-4.628-13.396-12.91-13.396c-10.229,0-18.997,9.744-18.997,17.538c0,3.411,3.409,3.652,11.204,3.652H539.788z"/>
	<path fill="#4E5A80" d="M602.63,147.047c0-9.742,0-12.666-4.628-15.588l-3.41-2.192c-1.704-1.462-1.704-5.846,0-7.308
		c11.204-3.167,28.011-9.743,35.562-14.613c1.949,0,3.409,0.73,4.384,2.192c-0.486,4.871-0.975,8.281-0.975,10.473
		c0,1.706,0.488,2.436,2.437,2.924c6.576-4.142,13.641-12.179,23.87-12.179c6.576,0,13.396,5.114,13.396,14.371
		c0,11.204-7.794,15.831-15.588,15.831c-3.41,0-6.334-1.46-9.501-4.384c-5.602-4.627-7.794-4.871-9.254-4.871
		c-3.41,0-4.628,5.358-4.628,14.615v37.509c0,17.052,0.974,19,9.012,19.73l7.794,0.73c1.949,1.46,1.949,7.062-0.243,8.525
		c-11.692-0.488-21.436-0.73-32.883-0.73c-9.986,0-20.703,0.242-28.741,0.73c-2.192-1.464-2.192-7.065-0.243-8.525l4.627-0.489
		c8.038-0.729,9.013-2.92,9.013-19.972V147.047z"/>
	<path fill="#4E5A80" d="M724.657,183.338c0,17.052,0.972,19.243,9.011,19.973l4.629,0.487c1.948,1.464,1.948,7.066-0.245,8.526
		c-8.523-0.487-18.024-0.729-29.229-0.729c-10.959,0-21.19,0.242-29.226,0.729c-2.193-1.46-2.193-7.062-0.246-8.526l4.629-0.487
		c8.038-0.729,9.012-2.921,9.012-19.973v-36.779c0-9.742,0-12.664-4.627-15.588l-3.411-2.192c-1.705-1.461-1.705-5.845,0-7.307
		c11.448-3.166,28.74-9.743,36.048-14.127c1.949,0,3.409,0.73,4.385,2.192c-0.488,7.307-0.729,18.023-0.729,28.985V183.338z
		 M726.604,73.245c0,11.691-9.011,17.78-18.268,17.78c-10.719,0-17.052-7.306-17.052-17.292c0-10.718,8.527-17.781,18.271-17.781
		C719.784,55.952,726.604,63.502,726.604,73.245z"/>
	<path fill="#4E5A80" d="M762.653,146.559c0-9.742,0-12.664-4.627-15.588l-3.411-2.192c-1.705-1.461-1.705-5.845,0-7.307
		c11.45-3.166,28.986-9.743,36.049-14.127c1.948,0,3.408,0.73,4.385,2.192c0,3.41-0.73,9.254-0.73,10.96
		c0,1.46,0.487,1.948,1.218,1.948s3.166-1.218,4.627-1.948c5.359-3.167,16.806-9.743,28.01-9.743
		c20.219,0,30.447,13.883,30.447,30.689v41.894c0,17.052,0.976,19,9.744,19.973l3.896,0.487c1.947,1.464,1.947,7.066-0.246,8.526
		c-7.55-0.487-17.778-0.729-29.471-0.729c-9.741,0-19.242,0.242-26.306,0.729c-2.193-1.46-2.193-7.062-0.241-8.526l4.384-0.729
		c5.602-0.974,6.575-2.679,6.575-16.076v-41.164c0-9.498-4.873-17.292-17.049-17.292c-6.82,0-11.693,3.167-13.641,5.845
		c-1.461,1.706-1.948,4.628-1.948,9.013v43.599c0,13.397,0.973,15.589,7.062,16.318l3.896,0.487c1.95,1.464,1.95,7.066-0.243,8.526
		c-7.55-0.487-15.346-0.729-27.034-0.729c-10.231,0-20.219,0.242-28.742,0.729c-2.193-1.46-2.193-7.062-0.244-8.526l3.896-0.487
		c8.771-0.973,9.743-2.921,9.743-19.973V146.559z"/>
	<path fill="#4E5A80" d="M995.993,119.767c1.705,1.462,2.19,3.41,2.19,6.089c0,3.898-1.216,8.282-3.652,9.743h-18.023
		c0.484,2.192,0.73,4.385,0.73,8.525c0,19.242-11.447,42.624-49.932,42.624c-3.896,0-7.308-0.486-9.987-0.729
		c-2.435,0.974-4.141,2.922-4.141,5.845c0,5.36,5.114,8.77,12.422,8.77c8.28,0,18.268-0.488,29.716-0.488
		c18.268,0,37.752,4.872,37.752,29.474c0,15.344-9.256,28.984-21.92,36.779c-12.665,7.551-28.499,10.717-42.624,10.717
		c-35.075,0-47.74-16.076-47.74-31.177c0-5.848,3.653-9.744,7.795-12.18c4.87-2.921,9.256-6.088,11.935-7.551
		c2.924-1.705,2.19-2.921,0.243-3.408c-9.011-2.924-15.102-10.962-15.102-19.488c0-1.947,0.487-3.896,1.706-5.114
		c6.819-4.384,14.125-9.986,15.589-11.448c2.19-1.704,3.165-3.166,1.947-5.357c-12.18-4.872-20.702-16.563-20.702-31.422
		c0-20.214,15.831-39.213,47.495-39.213c14.371,0,27.28,4.141,36.291,9.011H995.993z M927.307,225.234
		c-6.578,0-11.45,1.46-13.641,3.166c-2.436,2.19-3.411,5.357-3.411,8.523c0,16.563,12.422,27.28,31.664,27.28
		c15.347,0,25.575-7.551,25.575-19.242c0-14.125-10.474-19.728-23.869-19.728H927.307z M932.663,175.788
		c7.551,0,13.886-7.064,13.886-24.845c0-19.729-7.065-28.985-15.834-28.985c-7.551,0-14.858,7.308-14.858,23.87
		C915.856,164.34,922.923,175.788,932.663,175.788z"/>
</g>
<g opacity="0.6">
	<path fill="#4E5A80" d="M13.282,249.722c-1.36,0-1.53,0.057-1.871,1.133L9.2,257.433c-0.34,1.135-0.396,1.587-0.396,2.041
		c0,0.341,0.737,0.68,2.324,0.965l1.701,0.282c0.34,0.397,0.454,1.7-0.113,1.985c-1.984-0.115-4.025-0.115-6.406-0.17
		c-1.928,0-3.232,0.17-5.84,0.17c-0.624-0.341-0.567-1.532-0.17-1.985l1.531-0.171c1.361-0.171,2.495-0.623,3.458-2.833
		c0.964-2.268,2.041-4.992,3.572-9.072l5.159-13.835c1.304-3.571,2.268-5.557,2.098-7.2c2.721-0.624,4.819-3.4,4.932-3.4
		c0.737,0,1.077,0.282,1.304,1.132c0.454,1.645,1.134,3.742,2.551,7.769l7.71,22.226c1.191,3.4,1.701,4.706,3.799,5.044l2.154,0.342
		c0.341,0.283,0.454,1.645-0.056,1.985c-2.722-0.115-5.783-0.17-8.731-0.17c-2.834,0-5.046,0.055-7.654,0.17
		c-0.623-0.341-0.736-1.532-0.113-1.985l1.814-0.282c1.304-0.228,1.53-0.624,1.53-0.965c0-0.397-0.396-1.757-1.077-3.857
		l-1.53-4.874c-0.284-0.906-0.737-1.021-2.722-1.021H13.282z M19.746,246.716c1.304,0,1.588-0.168,1.134-1.643l-1.475-4.595
		c-0.793-2.436-1.814-5.498-2.324-6.689c-0.454,1.304-1.588,4.366-2.438,6.976l-1.417,4.251c-0.51,1.532-0.227,1.7,1.191,1.7H19.746
		z"/>
	<path fill="#4E5A80" d="M41.351,231.013c0-2.269,0-2.892-1.134-3.574l-0.963-0.565c-0.397-0.341-0.397-1.361,0-1.7
		c2.438-0.567,5.839-1.93,8.675-3.177c0.34,0,0.737,0.114,0.964,0.396c-0.114,2.325-0.171,4.708-0.171,8.279v25.286
		c0,3.969,0.228,4.421,2.211,4.648l0.964,0.114c0.453,0.341,0.453,1.645-0.057,1.985c-1.871-0.115-4.252-0.17-6.803-0.17
		c-2.438,0-4.82,0.055-6.804,0.17c-0.51-0.341-0.51-1.645-0.056-1.985l1.077-0.114c1.871-0.168,2.098-0.68,2.098-4.648V231.013z"/>
	<path fill="#4E5A80" d="M57.115,231.013c0-2.269,0-2.892-1.134-3.574l-0.963-0.565c-0.397-0.341-0.397-1.361,0-1.7
		c2.438-0.567,5.839-1.93,8.675-3.177c0.34,0,0.737,0.114,0.964,0.396c-0.114,2.325-0.171,4.708-0.171,8.279v25.286
		c0,3.969,0.228,4.421,2.211,4.648l0.964,0.114c0.453,0.341,0.453,1.645-0.057,1.985c-1.871-0.115-4.252-0.17-6.803-0.17
		c-2.438,0-4.82,0.055-6.804,0.17c-0.51-0.341-0.51-1.645-0.056-1.985l1.077-0.114c1.872-0.168,2.098-0.68,2.098-4.648V231.013z"/>
	<path fill="#4E5A80" d="M103.212,254.767c-0.227,3.857,1.417,4.878,2.551,4.878c0.68,0,1.247-0.171,2.155-0.68
		c0.51,0.111,0.85,0.791,0.68,1.303c-0.68,0.906-3.346,3.062-6.577,3.062c-1.984,0-3.232-0.683-4.762-1.985
		c-0.397-0.341-0.624-0.454-0.908-0.454c-0.283,0-0.623,0.228-1.19,0.625c-1.02,0.734-2.721,1.814-4.819,1.814
		c-3.288,0-6.35-1.985-6.35-5.954c0-2.892,1.757-4.651,5.896-5.897c2.154-0.68,3.742-1.134,5.33-1.586
		c1.02-0.285,1.304-0.683,1.36-1.136c0.057-0.624,0.113-1.247,0.113-1.927c0-2.153-0.85-4.877-3.288-4.877
		c-1.361,0-2.552,0.794-2.948,3.233c-0.114,0.905-0.454,1.417-0.964,1.814c-0.851,0.623-3.062,1.303-4.083,1.303
		c-0.963,0-1.304-0.623-1.304-1.417c0-1.475,1.361-3.289,2.722-4.366c1.928-1.53,5.5-3.456,9.524-3.456
		c4.763,0,7.542,2.38,7.257,8.219L103.212,254.767z M96.408,253.293c0.057-0.906,0-1.077-0.397-1.021
		c-2.551,0.341-4.763,1.306-4.763,3.969c0,1.814,1.304,3.403,2.892,3.403c1.758,0,2.098-1.021,2.154-2.78L96.408,253.293z"/>
	<path fill="#4E5A80" d="M109.564,261.57c-0.624-1.132-1.021-3.854-0.907-6.406c0.34-0.568,1.587-0.623,1.927-0.111
		c0.738,2.323,2.892,5.668,5.784,5.668c1.701,0,2.948-1.021,2.948-2.947c0-2.098-1.814-3.289-3.742-4.254
		c-3.402-1.7-5.84-3.741-5.84-7.143c0-4.933,4.139-7.312,9.015-7.312c2.892,0,5.443,0.734,6.067,1.188
		c0.567,1.247,0.85,3.515,0.85,5.671c-0.227,0.624-1.644,0.624-1.984,0.227c-1.134-3.289-2.551-4.48-4.422-4.48
		c-1.645,0-2.835,0.966-2.835,2.495c0,1.303,1.077,2.383,3.628,3.63c3.855,1.87,6.236,4.251,6.236,7.938
		c-0.056,5.044-4.365,7.598-9.695,7.598C113.363,263.33,111.095,262.762,109.564,261.57z"/>
	<path fill="#4E5A80" d="M131.961,247.398c0-2.269,0-2.948-1.078-3.631l-0.793-0.509c-0.397-0.341-0.397-1.361,0-1.7
		c2.325-0.683,6.577-2.494,8.165-3.574c0.396-0.056,0.964,0.171,1.191,0.683c-0.114,0.68-0.114,1.303-0.114,1.871
		c0,0.397,0.228,0.735,0.454,0.791c1.701-0.851,4.196-2.265,7.2-2.265c6.01,0,9.639,4.703,9.639,10.828
		c0,7.937-5.613,13.438-13.891,13.438c-0.793,0-2.041-0.059-2.551-0.171c-0.511,0.112-0.851,0.454-0.851,1.646v5.612
		c0,3.968,0.228,4.422,2.099,4.592l1.927,0.171c0.454,0.338,0.454,1.644-0.057,1.982c-2.835-0.111-5.102-0.171-7.768-0.171
		c-2.495,0-4.706,0.06-6.747,0.171c-0.511-0.339-0.511-1.645-0.057-1.982l1.134-0.115c1.871-0.171,2.098-0.68,2.098-4.647V247.398z
		 M139.331,256.128c0,1.248,0.454,2.439,1.305,3.289c0.737,0.794,1.814,1.304,2.721,1.304c3.516,0,5.443-3.742,5.443-9.014
		c0-5.557-2.721-8.733-6.463-8.733c-0.964,0-1.928,0.229-2.381,0.794c-0.284,0.342-0.624,1.077-0.624,3.289V256.128z"/>
	<path fill="#4E5A80" d="M168.591,249.099c-1.304,0-1.417,0.111-1.417,1.021c0,4.251,2.721,8.39,7.994,8.39
		c1.587,0,3.742-0.339,5.272-2.947c0.625-0.112,1.475,0.341,1.475,1.303c-2.325,4.821-6.521,6.466-9.922,6.466
		c-7.654,0-11.793-5.386-11.793-11.566c0-7.146,5.16-12.699,12.247-12.699c5.896,0,9.071,3.797,9.071,8.163
		c0,1.076-0.283,1.871-2.041,1.871H168.591z M172.333,246.604c0.793,0,1.701-0.114,2.325-0.512c0.283-0.168,0.397-0.735,0.397-1.303
		c0-1.871-1.077-3.119-3.005-3.119c-2.381,0-4.423,2.269-4.423,4.083c0,0.795,0.794,0.851,2.609,0.851H172.333z"/>
	<path fill="#4E5A80" d="M204.085,240.026c0.737,0.623,1.19,1.418,1.19,2.947c0,1.703-0.793,3.233-1.473,3.233
		c-0.284,0-0.794-0.115-0.908-0.283c-1.587-2.268-3.798-4.254-5.839-4.254c-3.686,0-5.67,4.195-5.67,8.108
		c0,4.479,2.892,9.016,8.108,9.016c2.098,0,3.799-0.682,5.046-2.78c0.68-0.056,1.474,0.342,1.474,1.248
		c-1.248,2.835-4.649,6.068-10.035,6.068c-7.145,0-12.02-4.763-12.02-11.455c0-8.048,6.52-12.811,14.174-12.811
		C200.061,239.064,202.555,239.458,204.085,240.026z"/>
	<path fill="#4E5A80" d="M218.318,242.918c-0.737,0-0.794,0.056-0.794,1.303v8.504c0,3.178,0,6.692,3.969,6.692
		c0.793,0,1.701-0.397,2.381-0.85c0.567,0.168,0.907,0.791,0.793,1.474c-1.587,1.7-4.649,3.289-8.164,3.289
		c-4.706,0-6.351-2.724-6.351-6.466v-12.644c0-1.188-0.056-1.303-1.077-1.303h-1.757c-0.624-0.228-0.794-1.359-0.34-1.757
		c1.758-0.623,3.345-1.645,4.706-2.554c1.02-0.734,2.438-1.927,4.196-4.421c0.396-0.227,1.417-0.171,1.7,0.282v4.254
		c0,1.076,0.057,1.133,1.077,1.133h5.047c0.283,0.227,0.453,0.568,0.453,1.08c0,0.623-0.17,1.644-0.737,1.982H218.318z"/>
	<path fill="#4E5A80" d="M226.371,261.57c-0.624-1.132-1.021-3.854-0.907-6.406c0.34-0.568,1.587-0.623,1.927-0.111
		c0.737,2.323,2.892,5.668,5.783,5.668c1.701,0,2.949-1.021,2.949-2.947c0-2.098-1.814-3.289-3.742-4.254
		c-3.402-1.7-5.84-3.741-5.84-7.143c0-4.933,4.139-7.312,9.015-7.312c2.892,0,5.443,0.734,6.066,1.188
		c0.567,1.247,0.851,3.515,0.851,5.671c-0.227,0.624-1.644,0.624-1.984,0.227c-1.134-3.289-2.551-4.48-4.422-4.48
		c-1.645,0-2.835,0.966-2.835,2.495c0,1.303,1.078,2.383,3.629,3.63c3.855,1.87,6.236,4.251,6.236,7.938
		c-0.057,5.044-4.366,7.598-9.695,7.598C230.169,263.33,227.901,262.762,226.371,261.57z"/>
	<path fill="#4E5A80" d="M259.768,251.649c-0.057-8.108,6.35-12.585,13.04-12.585c6.691,0,12.7,4.08,12.7,12.075
		c0,8.277-6.066,12.19-13.04,12.19C265.721,263.33,259.824,259.474,259.768,251.649z M267.932,250.401
		c0,5.954,1.871,10.319,5.16,10.319c3.231,0,4.309-3.686,4.252-8.787c-0.057-5.501-1.645-10.264-4.876-10.264
		C269.973,241.67,267.932,244.221,267.932,250.401z"/>
	<path fill="#4E5A80" d="M300.876,242.918c-1.417,0-1.474,0.056-1.474,1.589v11.451c0,4.083,0.227,4.536,2.098,4.707l1.871,0.171
		c0.453,0.338,0.453,1.529-0.057,1.87c-2.666-0.115-5.046-0.17-7.711-0.17c-2.551,0-4.933,0.055-6.69,0.17
		c-0.51-0.341-0.51-1.532-0.056-1.87l0.907-0.115c2.042-0.227,2.268-0.68,2.268-4.763v-11.451c0-1.533-0.113-1.589-1.417-1.589
		h-2.098c-0.339-0.228-0.454-1.248-0.169-1.53l2.438-1.247c0.737-0.396,1.247-0.738,1.247-1.474c0-2.439,0.397-6.578,1.587-9.354
		c1.645-3.745,4.763-7.316,11.113-7.316c3.289,0,6.634,1.701,6.634,4.65c0,1.871-1.36,3.06-3.289,3.06
		c-1.19,0-1.871-0.564-2.267-1.018c-2.438-3.121-3.346-3.745-4.026-3.745c-1.474,0-2.381,1.646-2.381,6.92v6.406
		c0,1.529,0.057,1.586,1.474,1.586h5.386c0.284,0.171,0.397,0.623,0.397,1.135c0,0.736-0.226,1.589-0.737,1.928H300.876z"/>
	<path fill="#4E5A80" d="M322.877,247.398c0-2.269,0-2.948-1.078-3.631l-0.793-0.509c-0.397-0.341-0.397-1.361,0-1.7
		c2.324-0.683,6.577-2.494,8.165-3.574c0.396-0.056,0.963,0.171,1.191,0.683c-0.114,0.68-0.114,1.303-0.114,1.871
		c0,0.397,0.228,0.735,0.454,0.791c1.701-0.851,4.195-2.265,7.2-2.265c6.01,0,9.639,4.703,9.639,10.828
		c0,7.937-5.613,13.438-13.891,13.438c-0.793,0-2.041-0.059-2.551-0.171c-0.511,0.112-0.851,0.454-0.851,1.646v5.612
		c0,3.968,0.228,4.422,2.099,4.592l1.927,0.171c0.454,0.338,0.454,1.644-0.057,1.982c-2.835-0.111-5.103-0.171-7.768-0.171
		c-2.495,0-4.706,0.06-6.747,0.171c-0.51-0.339-0.51-1.645-0.056-1.982l1.134-0.115c1.871-0.171,2.098-0.68,2.098-4.647V247.398z
		 M330.247,256.128c0,1.248,0.454,2.439,1.305,3.289c0.737,0.794,1.814,1.304,2.721,1.304c3.516,0,5.443-3.742,5.443-9.014
		c0-5.557-2.721-8.733-6.464-8.733c-0.963,0-1.928,0.229-2.381,0.794c-0.284,0.342-0.624,1.077-0.624,3.289V256.128z"/>
	<path fill="#4E5A80" d="M353.61,231.013c0-2.269,0-2.892-1.134-3.574l-0.963-0.565c-0.397-0.341-0.397-1.361,0-1.7
		c2.438-0.567,5.839-1.93,8.674-3.177c0.34,0,0.736,0.114,0.964,0.396c-0.114,2.325-0.17,4.708-0.17,8.279v25.286
		c0,3.969,0.227,4.421,2.211,4.648l0.964,0.114c0.453,0.341,0.453,1.645-0.057,1.985c-1.871-0.115-4.252-0.17-6.804-0.17
		c-2.438,0-4.819,0.055-6.803,0.17c-0.51-0.341-0.51-1.645-0.057-1.985l1.078-0.114c1.871-0.168,2.097-0.68,2.097-4.648V231.013z"/>
	<path fill="#4E5A80" d="M386.1,254.767c-0.228,3.857,1.417,4.878,2.551,4.878c0.681,0,1.248-0.171,2.155-0.68
		c0.51,0.111,0.85,0.791,0.68,1.303c-0.68,0.906-3.346,3.062-6.577,3.062c-1.984,0-3.232-0.683-4.763-1.985
		c-0.397-0.341-0.624-0.454-0.908-0.454c-0.283,0-0.623,0.228-1.19,0.625c-1.02,0.734-2.721,1.814-4.818,1.814
		c-3.289,0-6.351-1.985-6.351-5.954c0-2.892,1.758-4.651,5.896-5.897c2.154-0.68,3.742-1.134,5.33-1.586
		c1.02-0.285,1.304-0.683,1.36-1.136c0.057-0.624,0.113-1.247,0.113-1.927c0-2.153-0.851-4.877-3.288-4.877
		c-1.361,0-2.552,0.794-2.948,3.233c-0.113,0.905-0.454,1.417-0.964,1.814c-0.85,0.623-3.062,1.303-4.082,1.303
		c-0.964,0-1.304-0.623-1.304-1.417c0-1.475,1.36-3.289,2.722-4.366c1.927-1.53,5.5-3.456,9.524-3.456
		c4.763,0,7.542,2.38,7.257,8.219L386.1,254.767z M379.296,253.293c0.057-0.906,0-1.077-0.397-1.021
		c-2.551,0.341-4.762,1.306-4.762,3.969c0,1.814,1.304,3.403,2.892,3.403c1.758,0,2.098-1.021,2.154-2.78L379.296,253.293z"/>
	<path fill="#4E5A80" d="M392.452,261.57c-0.624-1.132-1.021-3.854-0.907-6.406c0.34-0.568,1.587-0.623,1.927-0.111
		c0.738,2.323,2.892,5.668,5.783,5.668c1.701,0,2.949-1.021,2.949-2.947c0-2.098-1.814-3.289-3.742-4.254
		c-3.402-1.7-5.84-3.741-5.84-7.143c0-4.933,4.139-7.312,9.015-7.312c2.892,0,5.443,0.734,6.066,1.188
		c0.567,1.247,0.851,3.515,0.851,5.671c-0.227,0.624-1.644,0.624-1.984,0.227c-1.134-3.289-2.551-4.48-4.423-4.48
		c-1.644,0-2.834,0.966-2.834,2.495c0,1.303,1.077,2.383,3.628,3.63c3.855,1.87,6.236,4.251,6.236,7.938
		c-0.057,5.044-4.366,7.598-9.695,7.598C396.25,263.33,393.982,262.762,392.452,261.57z"/>
	<path fill="#4E5A80" d="M423.013,242.918c-0.737,0-0.794,0.056-0.794,1.303v8.504c0,3.178,0,6.692,3.969,6.692
		c0.794,0,1.701-0.397,2.382-0.85c0.567,0.168,0.907,0.791,0.793,1.474c-1.587,1.7-4.648,3.289-8.164,3.289
		c-4.706,0-6.35-2.724-6.35-6.466v-12.644c0-1.188-0.057-1.303-1.078-1.303h-1.757c-0.624-0.228-0.794-1.359-0.341-1.757
		c1.758-0.623,3.345-1.645,4.706-2.554c1.021-0.734,2.438-1.927,4.195-4.421c0.397-0.227,1.417-0.171,1.701,0.282v4.254
		c0,1.076,0.057,1.133,1.077,1.133h5.046c0.283,0.227,0.453,0.568,0.453,1.08c0,0.623-0.17,1.644-0.736,1.982H423.013z"/>
	<path fill="#4E5A80" d="M439.003,249.099c-1.304,0-1.417,0.111-1.417,1.021c0,4.251,2.721,8.39,7.994,8.39
		c1.587,0,3.742-0.339,5.272-2.947c0.625-0.112,1.475,0.341,1.475,1.303c-2.325,4.821-6.521,6.466-9.923,6.466
		c-7.653,0-11.792-5.386-11.792-11.566c0-7.146,5.159-12.699,12.246-12.699c5.897,0,9.071,3.797,9.071,8.163
		c0,1.076-0.283,1.871-2.041,1.871H439.003z M442.745,246.604c0.793,0,1.701-0.114,2.325-0.512c0.283-0.168,0.397-0.735,0.397-1.303
		c0-1.871-1.077-3.119-3.005-3.119c-2.381,0-4.423,2.269-4.423,4.083c0,0.795,0.794,0.851,2.608,0.851H442.745z"/>
	<path fill="#4E5A80" d="M457.375,247.51c0-2.269,0-2.948-1.077-3.628l-0.793-0.512c-0.397-0.338-0.397-1.358,0-1.7
		c2.608-0.734,6.521-2.268,8.277-3.4c0.454,0,0.794,0.171,1.021,0.509c-0.113,1.136-0.226,1.928-0.226,2.439
		c0,0.397,0.113,0.567,0.566,0.68c1.531-0.962,3.175-2.833,5.557-2.833c1.53,0,3.118,1.188,3.118,3.344
		c0,2.607-1.814,3.684-3.629,3.684c-0.793,0-1.474-0.339-2.211-1.019c-1.304-1.078-1.814-1.135-2.154-1.135
		c-0.793,0-1.078,1.248-1.078,3.4v8.734c0,3.968,0.227,4.421,2.098,4.592l1.814,0.171c0.453,0.338,0.453,1.641-0.057,1.982
		c-2.721-0.112-4.989-0.171-7.653-0.171c-2.325,0-4.82,0.059-6.69,0.171c-0.511-0.342-0.511-1.645-0.057-1.982l1.077-0.115
		c1.871-0.171,2.098-0.68,2.098-4.647V247.51z"/>
	<path fill="#4E5A80" d="M492.415,239.855c3.572,0,6.407-0.057,10.035-0.168c0.624,0.057,0.568,1.757,0.171,1.982l-0.851,0.171
		c-1.303,0.283-2.097,0.567-2.097,0.85c0,0.454,0.114,0.795,0.454,1.76c1.021,2.721,2.607,6.404,3.854,9.128
		c1.36-3.288,2.269-6.068,3.176-8.675c0.34-1.021,0.511-1.815,0.511-2.213c0-0.282-0.455-0.566-1.418-0.793l-0.963-0.228
		c-0.342-0.396-0.342-1.756,0.226-1.982c1.871,0.111,3.231,0.168,4.649,0.168c1.643,0,3.118-0.057,4.366-0.168
		c0.51,0.227,0.623,1.474,0.168,1.982l-0.792,0.171c-1.871,0.397-2.269,0.965-3.176,3.062c-2.607,5.783-5.216,12.02-7.598,18.029
		c-0.339,0.339-0.735,0.397-1.304,0.397c-0.566,0-0.963-0.059-1.303-0.397c-1.19-3.062-4.139-9.696-5.84-13.325
		c-1.474,2.949-4.876,10.489-6.18,13.325c-0.34,0.339-0.737,0.397-1.304,0.397c-0.567,0-0.964-0.059-1.304-0.397
		c-2.722-6.407-5.5-12.929-8.278-18.823c-0.793-1.645-1.36-1.871-2.325-2.156l-1.021-0.283c-0.396-0.452-0.396-1.7,0.171-1.982
		c2.324,0.111,4.138,0.168,6.52,0.168H492.415z M490.884,242.182c-0.793-0.17-1.701-0.229-2.722-0.229
		c-1.814,0-2.891,0.229-2.891,0.853c0,0.339,0.17,1.021,0.51,1.871c0.794,1.982,3.062,7.087,4.026,8.901
		c0.793-1.532,2.722-5.615,3.005-6.748c0.17-0.738,0.17-1.247,0.17-1.7C492.982,244.221,492.018,242.408,490.884,242.182z"/>
	<path fill="#4E5A80" d="M515.099,251.649c-0.058-8.108,6.349-12.585,13.039-12.585s12.701,4.08,12.701,12.075
		c0,8.277-6.067,12.19-13.04,12.19C521.051,263.33,515.154,259.474,515.099,251.649z M523.262,250.401
		c0,5.954,1.871,10.319,5.16,10.319c3.231,0,4.31-3.686,4.252-8.787c-0.058-5.501-1.644-10.264-4.875-10.264
		C525.303,241.67,523.262,244.221,523.262,250.401z"/>
	<path fill="#4E5A80" d="M547.361,247.51c0-2.269,0-2.948-1.078-3.628l-0.793-0.512c-0.396-0.338-0.396-1.358,0-1.7
		c2.607-0.734,6.521-2.268,8.276-3.4c0.455,0,0.795,0.171,1.021,0.509c-0.112,1.136-0.227,1.928-0.227,2.439
		c0,0.397,0.114,0.567,0.567,0.68c1.529-0.962,3.175-2.833,5.558-2.833c1.529,0,3.117,1.188,3.117,3.344
		c0,2.607-1.814,3.684-3.629,3.684c-0.794,0-1.475-0.339-2.211-1.019c-1.306-1.078-1.814-1.135-2.155-1.135
		c-0.793,0-1.076,1.248-1.076,3.4v8.734c0,3.968,0.226,4.421,2.097,4.592l1.815,0.171c0.453,0.338,0.453,1.641-0.058,1.982
		c-2.721-0.112-4.989-0.171-7.652-0.171c-2.325,0-4.82,0.059-6.691,0.171c-0.511-0.342-0.511-1.645-0.058-1.982l1.077-0.115
		c1.871-0.171,2.099-0.68,2.099-4.647V247.51z"/>
	<path fill="#4E5A80" d="M567.604,231.013c0-2.269,0-2.892-1.134-3.574l-0.964-0.565c-0.396-0.341-0.396-1.361,0-1.7
		c2.325-0.567,5.781-1.93,8.674-3.177c0.342,0,0.738,0.114,0.965,0.396c-0.115,2.325-0.171,4.708-0.171,8.279v17.803
		c0,0.624,0.171,0.794,0.794,0.794c0.964,0,2.154-0.285,3.289-1.588l2.38-2.777c1.078-1.306,1.362-1.93,1.362-2.268
		c0-0.286-0.568-0.512-1.078-0.568l-1.416-0.227c-0.512-0.512-0.455-1.759,0.111-1.985h1.362c2.664,0,7.37-0.282,10.715-0.791
		c0.566,0.282,0.623,1.529,0.229,1.982l-1.816,0.397c-1.075,0.226-2.267,0.794-3.798,1.985c-2.155,1.644-3.006,2.494-3.8,3.286
		c-0.282,0.341-0.339,0.567-0.339,0.737c0,0.171,0.112,0.51,0.396,0.966c1.021,1.812,6.01,9.525,7.426,10.828
		c0.794,0.735,1.872,1.021,3.346,1.303l0.851,0.171c0.455,0.397,0.34,1.756-0.226,1.985c-1.759-0.115-3.856-0.17-7.145-0.17
		c-3.345,0-5.387,0.055-6.973,0.17c-0.567-0.285-0.682-1.477-0.229-1.985l0.738-0.171c0.566-0.111,0.906-0.226,0.906-0.453
		c0-0.227-0.51-1.132-0.964-1.814l-4.025-6.121c-0.397-0.625-0.85-0.851-1.418-0.851c-0.396,0-0.68,0.282-0.68,1.359v3.288
		c0,3.969,0.228,4.421,2.212,4.648l0.907,0.114c0.452,0.341,0.452,1.645-0.057,1.985c-1.814-0.115-4.196-0.17-6.804-0.17
		c-2.608,0-4.934,0.055-6.917,0.17c-0.512-0.341-0.512-1.645-0.057-1.985l1.076-0.114c2.041-0.228,2.269-0.68,2.269-4.648V231.013z"
		/>
	<path fill="#4E5A80" d="M633.775,255.053c0,3.344,0.168,4.817,1.529,4.817c0.736,0,1.589-0.226,2.269-0.453
		c0.509,0.112,0.567,2.153-0.171,2.437c-5.558,0.229-10.319,2.042-10.49,2.042c-0.395-0.057-0.623-0.339-0.68-0.68
		c0.114-0.68,0.171-1.589,0.171-2.042c0-0.338-0.282-0.567-0.624-0.567c-2.212,1.418-4.195,2.724-7.71,2.724
		c-4.706,0-6.634-2.439-6.634-7.257v-9.641c0-3.003-0.341-3.288-1.7-3.686l-0.738-0.227c-0.396-0.509-0.342-1.585,0.227-1.982
		c1.871-0.06,3.856-0.228,5.501-0.512c1.7-0.282,3.345-0.962,3.571-0.962c0.341,0,0.623,0.394,0.68,0.68
		c-0.112,1.417-0.171,2.946-0.171,4.988v9.354c0,2.721,0.396,5.104,4.027,5.104c1.586,0,2.494-0.737,2.947-1.078
		c0.396-0.283,0.624-1.134,0.624-1.701v-10.713c0-2.269-0.397-2.78-2.439-3.062l-0.794-0.115c-0.452-0.396-0.397-1.756,0.285-1.982
		c2.041-0.114,4.08-0.342,5.896-0.568c1.985-0.282,3.686-0.905,4.027-0.905c0.227,0,0.509,0.282,0.565,0.68
		c-0.057,1.021-0.168,2.892-0.168,4.988V255.053z"/>
	<path fill="#4E5A80" d="M642.677,247.398c0-2.269,0-2.948-1.077-3.631l-0.794-0.509c-0.397-0.341-0.397-1.361,0-1.7
		c2.665-0.738,6.748-2.269,8.392-3.289c0.454,0,0.793,0.171,1.021,0.509c0,0.795-0.171,2.157-0.171,2.551
		c0,0.341,0.112,0.456,0.283,0.456s0.737-0.285,1.076-0.456c1.247-0.735,3.913-2.265,6.521-2.265c4.705,0,7.088,3.229,7.088,7.143
		v9.751c0,3.969,0.226,4.421,2.267,4.648l0.907,0.114c0.452,0.341,0.452,1.645-0.057,1.985c-1.756-0.115-4.139-0.17-6.859-0.17
		c-2.269,0-4.48,0.055-6.126,0.17c-0.508-0.341-0.508-1.645-0.055-1.985l1.021-0.171c1.303-0.226,1.53-0.623,1.53-3.742v-9.58
		c0-2.212-1.133-4.025-3.969-4.025c-1.586,0-2.722,0.736-3.174,1.359c-0.342,0.397-0.454,1.077-0.454,2.098v10.148
		c0,3.119,0.227,3.631,1.646,3.799l0.905,0.114c0.453,0.341,0.453,1.645-0.056,1.985c-1.759-0.115-3.571-0.17-6.295-0.17
		c-2.38,0-4.704,0.055-6.689,0.17c-0.509-0.341-0.509-1.645-0.057-1.985l0.906-0.114c2.042-0.228,2.269-0.68,2.269-4.648V247.398z"
		/>
	<path fill="#4E5A80" d="M695.521,253.236c0,5.331,0.226,6.634,1.303,6.634c1.021,0,1.477-0.114,2.439-0.453
		c0.623,0.51,0.623,1.928,0.055,2.437c-5.612,0.342-10.034,2.042-10.204,2.042c-0.396,0-0.851-0.339-0.962-0.794l0.168-1.757
		c-0.057-0.454-0.282-0.624-0.51-0.454c-1.985,1.248-4.023,2.439-6.123,2.439c-6.464,0-10.83-5.048-10.83-11.169
		c0-7.996,6.01-13.097,13.494-13.097c1.247,0,2.609,0.111,3.232,0.282c0.397-0.171,0.568-0.624,0.568-1.077v-7.257
		c0-2.269,0-2.892-1.136-3.574l-0.962-0.565c-0.456-0.341-0.396-1.361,0-1.7c2.436-0.567,5.896-1.93,8.672-3.177
		c0.397,0,0.738,0.114,0.966,0.396c-0.115,2.325-0.171,4.708-0.171,8.279V253.236z M688.152,245.698
		c0-0.909-0.171-1.478-0.397-1.931c-0.683-1.188-1.93-2.098-3.233-2.098c-2.891,0-5.724,3.007-5.724,8.958
		c0,3.742,1.7,8.901,6.349,8.901c0.794,0,1.587-0.227,2.323-0.68c0.623-0.396,0.683-1.133,0.683-2.153V245.698z"/>
	<path fill="#4E5A80" d="M709.756,249.099c-1.304,0-1.419,0.111-1.419,1.021c0,4.251,2.722,8.39,7.997,8.39
		c1.585,0,3.741-0.339,5.271-2.947c0.623-0.112,1.474,0.341,1.474,1.303c-2.324,4.821-6.52,6.466-9.923,6.466
		c-7.654,0-11.794-5.386-11.794-11.566c0-7.146,5.16-12.699,12.249-12.699c5.896,0,9.07,3.797,9.07,8.163
		c0,1.076-0.282,1.871-2.042,1.871H709.756z M713.497,246.604c0.794,0,1.7-0.114,2.325-0.512c0.284-0.168,0.396-0.735,0.396-1.303
		c0-1.871-1.076-3.119-3.004-3.119c-2.383,0-4.424,2.269-4.424,4.083c0,0.795,0.794,0.851,2.609,0.851H713.497z"/>
	<path fill="#4E5A80" d="M728.129,247.51c0-2.269,0-2.948-1.076-3.628l-0.795-0.512c-0.396-0.338-0.396-1.358,0-1.7
		c2.606-0.734,6.52-2.268,8.278-3.4c0.453,0,0.792,0.171,1.021,0.509c-0.115,1.136-0.229,1.928-0.229,2.439
		c0,0.397,0.114,0.567,0.567,0.68c1.532-0.962,3.174-2.833,5.557-2.833c1.529,0,3.118,1.188,3.118,3.344
		c0,2.607-1.814,3.684-3.627,3.684c-0.794,0-1.477-0.339-2.213-1.019c-1.303-1.078-1.814-1.135-2.155-1.135
		c-0.792,0-1.077,1.248-1.077,3.4v8.734c0,3.968,0.227,4.421,2.098,4.592l1.814,0.171c0.453,0.338,0.453,1.641-0.055,1.982
		c-2.723-0.112-4.989-0.171-7.655-0.171c-2.324,0-4.818,0.059-6.688,0.171c-0.512-0.342-0.512-1.645-0.06-1.982l1.08-0.115
		c1.871-0.171,2.097-0.68,2.097-4.647V247.51z"/>
	<path fill="#4E5A80" d="M757.385,242.918c-0.736,0-0.795,0.056-0.795,1.303v8.504c0,3.178,0,6.692,3.969,6.692
		c0.794,0,1.703-0.397,2.383-0.85c0.567,0.168,0.906,0.791,0.794,1.474c-1.588,1.7-4.65,3.289-8.166,3.289
		c-4.704,0-6.348-2.724-6.348-6.466v-12.644c0-1.188-0.057-1.303-1.077-1.303h-1.76c-0.623-0.228-0.793-1.359-0.341-1.757
		c1.76-0.623,3.349-1.645,4.707-2.554c1.021-0.734,2.438-1.927,4.195-4.421c0.396-0.227,1.418-0.171,1.702,0.282v4.254
		c0,1.076,0.057,1.133,1.077,1.133h5.045c0.285,0.227,0.453,0.568,0.453,1.08c0,0.623-0.168,1.644-0.735,1.982H757.385z"/>
	<path fill="#4E5A80" d="M784.203,254.767c-0.226,3.857,1.419,4.878,2.551,4.878c0.683,0,1.25-0.171,2.157-0.68
		c0.509,0.111,0.85,0.791,0.679,1.303c-0.679,0.906-3.345,3.062-6.578,3.062c-1.982,0-3.229-0.683-4.762-1.985
		c-0.395-0.341-0.624-0.454-0.906-0.454c-0.283,0-0.624,0.228-1.19,0.625c-1.021,0.734-2.722,1.814-4.819,1.814
		c-3.289,0-6.352-1.985-6.352-5.954c0-2.892,1.76-4.651,5.898-5.897c2.153-0.68,3.742-1.134,5.33-1.586
		c1.021-0.285,1.304-0.683,1.359-1.136c0.056-0.624,0.115-1.247,0.115-1.927c0-2.153-0.851-4.877-3.289-4.877
		c-1.362,0-2.551,0.794-2.948,3.233c-0.114,0.905-0.455,1.417-0.965,1.814c-0.85,0.623-3.062,1.303-4.083,1.303
		c-0.962,0-1.303-0.623-1.303-1.417c0-1.475,1.361-3.289,2.721-4.366c1.927-1.53,5.501-3.456,9.525-3.456
		c4.763,0,7.539,2.38,7.257,8.219L784.203,254.767z M777.399,253.293c0.059-0.906,0-1.077-0.396-1.021
		c-2.551,0.341-4.763,1.306-4.763,3.969c0,1.814,1.306,3.403,2.892,3.403c1.759,0,2.1-1.021,2.156-2.78L777.399,253.293z"/>
	<path fill="#4E5A80" d="M792.599,231.013c0-2.269,0-2.892-1.135-3.574l-0.966-0.565c-0.396-0.341-0.396-1.361,0-1.7
		c2.328-0.567,5.785-1.93,8.677-3.177c0.341,0,0.737,0.114,0.964,0.396c-0.114,2.325-0.17,4.708-0.17,8.279v17.803
		c0,0.624,0.17,0.794,0.793,0.794c0.966,0,2.154-0.285,3.29-1.588l2.38-2.777c1.076-1.306,1.361-1.93,1.361-2.268
		c0-0.286-0.568-0.512-1.077-0.568l-1.417-0.227c-0.512-0.512-0.454-1.759,0.111-1.985h1.362c2.665,0,7.369-0.282,10.717-0.791
		c0.564,0.282,0.623,1.529,0.227,1.982l-1.815,0.397c-1.076,0.226-2.268,0.794-3.798,1.985c-2.156,1.644-3.007,2.494-3.801,3.286
		c-0.282,0.341-0.338,0.567-0.338,0.737c0,0.171,0.111,0.51,0.397,0.966c1.018,1.812,6.009,9.525,7.425,10.828
		c0.794,0.735,1.87,1.021,3.345,1.303l0.854,0.171c0.452,0.397,0.338,1.756-0.228,1.985c-1.759-0.115-3.856-0.17-7.145-0.17
		c-3.346,0-5.388,0.055-6.975,0.17c-0.565-0.285-0.68-1.477-0.228-1.985l0.739-0.171c0.566-0.111,0.905-0.226,0.905-0.453
		c0-0.227-0.509-1.132-0.962-1.814l-4.026-6.121c-0.397-0.625-0.851-0.851-1.419-0.851c-0.396,0-0.679,0.282-0.679,1.359v3.288
		c0,3.969,0.227,4.421,2.212,4.648l0.906,0.114c0.453,0.341,0.453,1.645-0.057,1.985c-1.814-0.115-4.194-0.17-6.804-0.17
		s-4.934,0.055-6.917,0.17c-0.512-0.341-0.512-1.645-0.058-1.985l1.079-0.114c2.038-0.228,2.268-0.68,2.268-4.648V231.013z"/>
	<path fill="#4E5A80" d="M828.661,249.099c-1.304,0-1.418,0.111-1.418,1.021c0,4.251,2.722,8.39,7.996,8.39
		c1.586,0,3.741-0.339,5.271-2.947c0.623-0.112,1.474,0.341,1.474,1.303c-2.324,4.821-6.519,6.466-9.922,6.466
		c-7.654,0-11.794-5.386-11.794-11.566c0-7.146,5.16-12.699,12.249-12.699c5.896,0,9.07,3.797,9.07,8.163
		c0,1.076-0.283,1.871-2.042,1.871H828.661z M832.403,246.604c0.794,0,1.7-0.114,2.324-0.512c0.284-0.168,0.397-0.735,0.397-1.303
		c0-1.871-1.077-3.119-3.005-3.119c-2.383,0-4.424,2.269-4.424,4.083c0,0.795,0.795,0.851,2.609,0.851H832.403z"/>
	<path fill="#4E5A80" d="M847.032,247.398c0-2.269,0-2.948-1.077-3.631l-0.794-0.509c-0.397-0.341-0.397-1.361,0-1.7
		c2.665-0.738,6.748-2.269,8.393-3.289c0.453,0,0.792,0.171,1.021,0.509c0,0.795-0.171,2.157-0.171,2.551
		c0,0.341,0.111,0.456,0.282,0.456s0.738-0.285,1.077-0.456c1.246-0.735,3.912-2.265,6.521-2.265c4.705,0,7.088,3.229,7.088,7.143
		v9.751c0,3.969,0.226,4.421,2.267,4.648l0.907,0.114c0.452,0.341,0.452,1.645-0.057,1.985c-1.756-0.115-4.139-0.17-6.859-0.17
		c-2.269,0-4.48,0.055-6.124,0.17c-0.51-0.341-0.51-1.645-0.057-1.985l1.021-0.171c1.303-0.226,1.53-0.623,1.53-3.742v-9.58
		c0-2.212-1.133-4.025-3.969-4.025c-1.586,0-2.722,0.736-3.174,1.359c-0.342,0.397-0.453,1.077-0.453,2.098v10.148
		c0,3.119,0.226,3.631,1.645,3.799l0.906,0.114c0.452,0.341,0.452,1.645-0.057,1.985c-1.759-0.115-3.571-0.17-6.295-0.17
		c-2.38,0-4.704,0.055-6.689,0.17c-0.51-0.341-0.51-1.645-0.057-1.985l0.906-0.114c2.042-0.228,2.269-0.68,2.269-4.648V247.398z"/>
</g>
<g>
	<path fill="#4E5A80" d="M318.884,2.665l0.395,0.345l0.346,0.247l0.592,0.494l0.642,0.543l0.296,0.297l0.345,0.296l0.148,0.148
		l0.147,0.147l0.347,0.296l0.247,0.346l0.148,0.148l0.147,0.197l0.148,0.148l0.149,0.197l0.247,0.396l0.099,0.197l0.148,0.197
		l0.247,0.395l0.197,0.396l0.049,0.099l0.049,0.099l0.1,0.246l0.099,0.197l0.099,0.197l0.148,0.396l0.147,0.394l0.099,0.198
		l0.05,0.197l0.049,0.1v0.049v0.049l0.049,0.197l0.099,0.395l0.05,0.147l0.049,0.197v0.1v0.099l0.049,0.197l0.049,0.148v0.148
		l0.049,0.197v0.148v0.147v0.049v0.051l0.05,0.049v0.099v0.05v0.147v0.148v0.148v0.099v0.099v0.049l0.05,11.502v0.198v0.099v0.049
		v0.049v0.198l-0.05,0.443v0.445l-0.05,0.444v0.099v0.147l-0.049,0.247l-0.049,0.199v0.247l-0.049,0.197v0.098v0.05v0.099
		l-0.099,0.444l-0.049,0.247v0.197l-0.099,0.247v0.099l-0.049,0.099l-0.05,0.1v0.148l-0.099,0.197l-0.049,0.099v0.049l-0.05,0.099
		l-0.098,0.197l-0.197,0.396l-0.199,0.395l-0.099,0.197l-0.098,0.148l-0.148,0.197l-0.099,0.199l-0.098,0.148l-0.099,0.197
		l-0.148,0.147l-0.049,0.099v0.049l-0.049,0.05l-0.05,0.049l-0.049,0.099l-0.149,0.148l-0.197,0.297l-0.099,0.098l-0.099,0.148
		l-0.049,0.099h-0.049v0.049v0.099l0.049,0.049v0.05h0.049l0.05,0.049l0.049,0.05l0.049,0.098l0.099,0.05l0.049,0.049l0.099,0.1
		l0.1,0.099l0.099,0.099l0.198,0.197l0.099,0.148l0.147,0.148l0.099,0.099l0.147,0.197l0.148,0.149l0.099,0.197l0.1,0.197
		l0.147,0.197l0.099,0.197l0.099,0.198l0.049,0.248l0.099,0.247l0.099,0.197l0.05,0.247l0.148,0.494l0.049,0.197l0.05,0.247v0.099
		l0.049,0.099l0.049,0.247l0.099,0.445l0.05,0.443l0.05,0.445l0.049,0.444v0.444l0.049,0.396l0.049,0.444l0.049,0.394v0.05v0.1
		v0.049v0.099v0.099v0.147v0.099v0.148v0.148v0.148v0.198v0.198v0.197v0.197v0.197v0.247v0.248v0.247v0.247v0.296v0.297v0.296V46.4
		v0.345v0.346v0.345v0.345v0.396v0.345v0.395v0.445v0.394l-0.049,0.444v0.396v0.395v0.345v0.396v0.345v0.345v0.346l-0.049,0.296
		v0.296v0.295v0.297V54.2v0.247v0.247v0.248v0.197v0.198v0.197v0.148l-0.049,0.197v0.149v0.148v0.099v0.148v0.099v0.049v0.099v0.05
		v0.049v0.049v0.05l-0.049,0.049v0.099l-0.05,0.1v0.148l-0.05,0.099v0.197l-0.049,0.148v0.197l-0.099,0.347l-0.099,0.394
		l-0.099,0.395l-0.098,0.396l-0.099,0.394l-0.148,0.395l-0.147,0.396l-0.197,0.394l-0.199,0.395l-0.147,0.396l-0.197,0.394
		l-0.198,0.345l-0.197,0.297l-0.197,0.345l-0.199,0.296l-0.247,0.345l-0.247,0.347l-0.296,0.296l-0.248,0.345l-0.345,0.396
		l-0.296,0.345l-0.345,0.296l-0.297,0.345l-0.295,0.297l-0.197,0.147l-0.049,0.05l-0.049,0.049h-0.049l-0.296,0.296l-0.051,0.049
		h-0.049l-0.099,0.099l-0.148,0.148l-0.148,0.1l-0.197,0.148l-0.049,0.049l-0.049,0.049h-0.05l-0.197,0.147l-0.149,0.099
		l-0.197,0.099l-0.198,0.147l-0.197,0.099l-0.197,0.099l-0.197,0.099l-0.248,0.1l-0.197,0.049l-0.247,0.099h-0.099l-0.099,0.049
		h-0.148l-0.099,0.049h-0.049h-0.05h-0.049l-0.1,0.049l-0.247,0.049h-0.099h-0.148h-0.049h-0.049h-0.049h-0.099h-0.099h-0.099
		h-0.149l-0.148,0.05h-0.197h-0.148h-0.197h-0.099h-0.099h-0.248h-0.247h-0.246h-0.296h-0.295h-0.297h-0.345h-0.295h-0.396h-0.345
		h-0.395h-0.396h-0.444h-0.444h-0.445h-0.444h-0.495h-0.493h-0.493l-0.544,0.049h-0.542h-0.544h-0.592h-0.593h-0.592h-0.642h-0.643
		h-0.641h-0.691h-0.642h-0.741h-0.691h-0.74h-0.741h-0.79h-0.789h-0.791h-0.79h-0.838h-0.839h-0.889h-0.84h-0.887h-0.938h-0.889
		h-0.938h-0.987l-0.937,0.05h-0.988h-1.036h-0.988h-1.037l-0.049-11.896l3.899-0.049l-0.147-44.525l-3.8-0.049l-0.05-12.39
		L309.456,0l0.345,0.049h0.345h0.396l0.395,0.049l0.443,0.049l0.445,0.049l0.494,0.099l0.445,0.049l0.493,0.099l0.494,0.099
		l0.445,0.148l0.443,0.099l0.495,0.148l0.443,0.099l0.444,0.199l0.445,0.147l0.395,0.197l0.396,0.148l0.395,0.197l0.345,0.198
		l0.345,0.248L318.884,2.665z M310.245,12.883l-0.148-0.099l-0.247-0.099l-0.197-0.099l-0.197-0.049l-0.248-0.051l-0.198-0.098
		l-0.246-0.05h-0.247l-0.197-0.049l-0.248-0.05h-0.247h-0.246h-0.296h-0.247h-0.248h-0.049l-9.477,0.148l0.147,15.353h11.107h0.247
		l0.246-0.049l0.248-0.049h0.197l0.247-0.099l0.197-0.05l0.247-0.049l0.099-0.049l0.099-0.051l0.1-0.049h0.098l0.197-0.099
		l0.198-0.099l0.197-0.147h0.049l0.049-0.05l0.099-0.049l0.148-0.147l0.199-0.148l0.147-0.098l0.099-0.099l0.099-0.099l0.049-0.051
		l0.099-0.098l0.05-0.099l0.049-0.049l0.099-0.098l0.049-0.099l0.099-0.197l0.05-0.099l0.049-0.049v-0.05l0.049-0.049v-0.049
		l0.051-0.098v-0.099l0.049-0.051l0.049-0.098v-0.049l0.049-0.049V24.68l0.049-0.098v-0.099v-0.148l0.049-0.148l0.049-0.247v-0.149
		v-0.05v-0.049v-0.296v-0.049V23.25V23.15v-0.197h-0.049v-0.049v-0.099l0.049-0.396v-0.444V21.57l0.05-0.394v-0.345v-0.396V20.09
		v-0.345v-0.345v-0.297v-0.296v-0.296v-0.296v-0.297v-0.247v-0.247v-0.247l-0.05-0.248v-0.197v-0.197l-0.049-0.198v-0.197v-0.197
		l-0.049-0.149l-0.049-0.296l-0.049-0.148v-0.099l-0.049-0.099l-0.049-0.099l-0.051-0.049v-0.099l-0.197-0.248l-0.197-0.247
		l-0.099-0.147l-0.148-0.099l-0.246-0.246l-0.297-0.247l-0.296-0.249l-0.197-0.098l-0.295-0.247L310.245,12.883z M297.41,57.113
		l10.169,0.049h0.049h0.197h0.198h0.198l0.049-0.049h0.049h0.099h0.395l0.148-0.051h0.147h0.05l0.198-0.049l0.197-0.049h0.148
		l0.197-0.05l0.148-0.049l0.197-0.05l0.347-0.098l0.049-0.05l0.099-0.049l0.198-0.05l0.049-0.049l0.05-0.05h0.049l0.099-0.049
		l0.099-0.049l0.148-0.099l0.149-0.148l0.05-0.049l0.098-0.049l0.099-0.149l0.148-0.148l0.049-0.049v-0.05h0.049v-0.049l0.148-0.147
		v-0.05v-0.049h0.049l0.05-0.099l0.098-0.148l0.099-0.197l0.05-0.1l0.049-0.099l0.049-0.247l0.051-0.148l0.049-0.197l0.099-0.197
		l0.049-0.197v-0.248l0.049-0.197l0.049-0.197v-0.247l0.05-0.197v-0.15v-0.098v-0.247l0.049-0.197v-0.247v-0.296l-0.049-0.248
		v-0.246v-5.727v-0.049v-0.05v-0.099v-0.098v-0.099l-0.05-0.099v-0.099v-0.1v-0.049l-0.049-0.049v-0.148l-0.049-0.099v-0.148
		l-0.049-0.099v-0.049l-0.049-0.148l-0.049-0.049v-0.099l-0.049-0.147l-0.051-0.149l-0.049-0.148l-0.049-0.148l-0.148-0.345
		l-0.098-0.148l-0.099-0.147l-0.099-0.15l-0.099-0.098l-0.246-0.296l-0.248-0.247l-0.296-0.247l-0.345-0.199l-0.197-0.099
		l-0.148-0.099l-0.198-0.098l-0.197-0.099l-0.197-0.099l-0.197-0.049l-0.197-0.099l-0.197-0.049l-0.248-0.099l-0.197-0.049
		l-0.247-0.049l-0.246-0.049h-0.247l-0.199-0.049h-0.247l-0.247-0.049l-10.021-0.049L297.41,57.113z"/>
	<path fill="#4E5A80" d="M378.93,0l-0.296,4.096v0.148v0.148l-0.049,0.248v0.148l-0.049,0.148v0.296l-0.051,0.247v0.099v0.049v0.149
		l-0.049,0.247l-0.049,0.296l-0.049,0.247v0.099v0.099l-0.049,0.05l-0.049,0.493l-0.148,0.493l-0.049,0.248l-0.049,0.247
		l-0.049,0.197l-0.05,0.247l-0.099,0.197v0.099l-0.049,0.149l-0.049,0.099l-0.049,0.099l-0.049,0.246l-0.148,0.395l-0.049,0.099
		l-0.051,0.1l-0.098,0.247l-0.148,0.395l-0.098,0.197l-0.049,0.197l-0.099,0.049l-0.049,0.1l-0.049,0.197l-0.099,0.197h-0.049v0.049
		l-0.049,0.049v0.05l-0.148,0.197l-0.098,0.148l-0.199,0.346l-0.198,0.296l-0.197,0.296l-0.049,0.049l-0.099,0.049l-0.099,0.148
		l-0.197,0.248l-0.248,0.247l-13.475,16.733l14.019,24.386l0.197,0.295l0.147,0.247l0.099,0.148l0.099,0.147l0.149,0.248
		l0.148,0.247l0.049,0.147l0.099,0.099l0.148,0.247l0.099,0.248l0.148,0.197l0.099,0.197l0.099,0.247l0.148,0.247l0.1,0.199
		l0.099,0.246l0.099,0.247l0.098,0.247l0.099,0.247v0.049v0.099l0.05,0.1l0.099,0.247l0.049,0.247l0.099,0.247l0.049,0.247
		l0.099,0.198l0.049,0.247l0.049,0.247l0.049,0.197l0.099,0.197l0.051,0.198v0.198l0.049,0.099v0.099l0.049,0.197l0.05,0.148
		l0.049,0.346v0.197v0.049v0.049l0.05,0.049v0.345l0.049,0.295l0.049,0.297l0.05,0.395l0.049,0.345l0.05,0.396v0.197l0.049,0.197
		v0.197v0.099v0.099v0.099v0.099v0.149v0.197v0.049v0.05l0.05,0.049l-0.05,0.296v0.148v0.148v0.1v0.148v0.246l-0.049,0.05v0.098
		v0.099v0.148v0.148v0.198v0.197v0.246h-11.996v-0.147v-0.148v-0.297v-0.247v-0.246v-0.247l-0.049-0.247v-0.1v-0.099v-0.197
		l-0.049-0.197v-0.099v-0.049v-0.05l-0.049-0.396v-0.197l-0.049-0.247l-0.049-0.444l-0.049-0.247l-0.049-0.248v-0.197l-0.05-0.197
		l-0.049-0.197l-0.049-0.197l-0.049-0.149l-0.049-0.198l-0.049-0.049v-0.099l-0.099-0.198l-0.049-0.147l-0.05-0.197l-0.049-0.099
		l-0.049-0.099l-0.05-0.1V62.64l-0.099-0.197l-0.05-0.247l-0.099-0.246l-0.049-0.099l-0.049-0.099l-0.049-0.149l-0.049-0.099
		l-0.148-0.247l-0.049-0.099l-0.049-0.049v-0.099l-0.148-0.247l-0.148-0.248l-0.099-0.099V60.37V60.32l-0.049-0.049L353.952,40.97
		l-6.368,8.096l0.1,19.943l-11.947,0.05l-0.148-68.959l12.391-0.049l0.099,28.975l16.585-21.128l0.15-0.197l0.147-0.148l0.099-0.246
		l0.099-0.099l0.049-0.099l0.247-0.396l0.197-0.444l0.197-0.394l0.05-0.148V5.677V5.626l0.1-0.197l0.049-0.247l0.099-0.197
		l0.049-0.247l0.05-0.246V4.294l0.049-0.247l0.05-0.494l0.049-0.494l0.049-0.493l0.049-0.246V2.171V2.122V2.072V2.023V1.974v-0.05
		l0.049-0.098V1.579V1.48V1.431V1.283l0.049-0.248l0.049-0.493V0H378.93z"/>
	<path fill="#4E5A80" d="M390.403,0.148l12.143-0.049l0.199,68.959h-12.095L390.403,0.148z"/>
	<path fill="#4E5A80" d="M415.253,0.148l12.144-0.049l0.197,68.959H415.5L415.253,0.148z"/>
</g>
<g>
	<path fill="#4E5A80" d="M493.329,0.099h12.538l-3.406,68.959h-11.846l-5.776-20.092l-0.05-0.049v-0.049l-0.05-0.049l-0.049-0.099
		l-0.049-0.049l-0.05-0.049l-0.099-0.05l-0.049-0.049h-0.099l-0.049-0.049h-0.05h-0.049l-0.099,0.049l-0.099,0.049h-0.049
		l-0.099,0.05l-0.05,0.098l-0.098,0.148l-0.049,0.148l-5.381,20.091H466.03l-4.196-69.009h12.391l1.481,28.877l0.05,0.197
		l0.049,0.197v0.05l0.05,0.099h0.049v0.049l0.099,0.05l0.049,0.05h0.099l0.099,0.049h0.099l0.049-0.049h0.049h0.099l0.099-0.05
		v-0.05h0.049l0.049-0.049l0.051-0.05v-0.049l0.049-0.05v-0.098l0.049-0.099l0.049-0.148l1.974-18.017h10.316l2.073,17.968v0.049
		l0.05,0.05v0.148l0.049,0.099v0.049l0.05,0.099l0.099,0.05l0.049,0.049l0.1,0.05h0.099l0.098,0.05h0.099v-0.05h0.049h0.049h0.049
		l0.049-0.05h0.049v-0.049h0.049l0.049-0.05l0.049-0.049v-0.05l0.049-0.049v-0.049l0.049-0.148l0.05-0.197L493.329,0.099z"/>
	<path fill="#4E5A80" d="M559.939,12.736l-30.604,0.147l-0.197,15.747h22.607V41.02l-22.46,0.049V56.47l31.049-0.197v12.538
		l-43.686,0.247L516.353,0h43.637L559.939,12.736z"/>
	<path fill="#4E5A80" d="M583.604,56.619l31.494-0.099v12.488l-43.883,0.05V0h12.389V56.619z"/>
</g>
</svg>
