<?xml version="1.0" encoding="utf-8"?>
<!-- Generator: Adobe Illustrator 15.0.0, SVG Export Plug-In . SVG Version: 6.00 Build 0)  -->
<!DOCTYPE svg PUBLIC "-//W3C//DTD SVG 1.1//EN" "http://www.w3.org/Graphics/SVG/1.1/DTD/svg11.dtd">
<svg version="1.1" id="Layer_1" xmlns="http://www.w3.org/2000/svg" xmlns:xlink="http://www.w3.org/1999/xlink" x="0px" y="0px"
	 width="1000px" height="500px" viewBox="0 0 1000 500" enable-background="new 0 0 1000 500" xml:space="preserve">
<path fill="#3C3D37" d="M566.833,41.833c0,0-1.166-4.5-6.333-2S525,57.333,504.333,69s-52.001,29.667-55.334,32
	s-4.999,3.5,2.126,15.875S605,395,605,395s4.375,8.625,18.5,1.25s42.833-22.75,49.5-27.083s47.167-25.666,49.667-27.833
	S730.5,336,727,330S577.999,62.667,566.833,41.833z"/>
<path fill="#945622" d="M536.081,156.869c0.983,1.752,80.48,153.563,83.419,159.131c1.565,2.967,5,8.75,14.343,4.954
	c4.039-1.641,7.823-2.537,13.595-8.267c2.743-2.724,3.656-6.594,1.896-10.021c0,0-84.668-162.667-92.334-172.333
	c0,0-4.749-7.459-6.624-8.959s-7.713-4.125-14.294-1.125s-8.831,4.5-10.581,7.625s-2.625,7.125-1,10.5
	S534.725,154.453,536.081,156.869z"/>
<path fill="#FFCBA4" d="M560.5,432c0,0,28-67,34-84s16.5-38.5,31-48s29.999-20.666,28.999-53.666c0,0,0-14.334-1-18.5
	s-11.501-10.167-12.334-14.5s0.335-5-3.832-8.167s-10.667-2.5-11.167-7s1.333-10-3-14s-6.001-3.667-13.667-4.333s-7-7.667-7-7.667
	s4.999-12.333,0.666-20.167s-21.833-7.5-27.333,2.5s-6.666,11-9.999,20.5s-12,19.833-12,19.833s-4.999-19.667-10.833-28.667
	s-14.001-18.833-21.334-17s-11.667,5.667-8.5,12.5S527,177.5,529.333,189.5s3.666,22.333,3.166,27.833s-1.167,11.833,2.5,17.833
	s4.5,12.834,4.5,17.834s4.833,11.833,6.5,15.667s3.502,4.333-4.665,16.667s-14.833,22-18.333,26.833s-12.5,23.334-18,31
	S473.169,382,454.003,396.5c0,0-40.836,34.583-42.003,35.5S560.5,432,560.5,432z"/>
<path fill="#FFE0B8" d="M512.808,160.826c0,0,0.942-2.951,2.942-4.638s3.375-2.062,4.188-2.25s5.25,4.062,6.562,6.5
	s-0.5,6.188-2.312,7.625s-4.617,2.95-6.146,0.924C518.042,168.986,513.406,163.003,512.808,160.826z"/>
</svg>
