<?xml version="1.0" encoding="utf-8"?>
<!-- Generator: Adobe Illustrator 15.0.0, SVG Export Plug-In . SVG Version: 6.00 Build 0)  -->
<!DOCTYPE svg PUBLIC "-//W3C//DTD SVG 1.1//EN" "http://www.w3.org/Graphics/SVG/1.1/DTD/svg11.dtd">
<svg version="1.1" id="Layer_1" xmlns="http://www.w3.org/2000/svg" xmlns:xlink="http://www.w3.org/1999/xlink" x="0px" y="0px"
	 width="110px" height="200px" viewBox="0 0 110 200" enable-background="new 0 0 110 200" xml:space="preserve">
<path fill="#3C3D37" d="M53.702,0.956c0,0-0.404-1.561-2.196-0.694c-1.792,0.868-12.313,6.07-19.481,10.117
	c-7.168,4.046-18.036,10.29-19.192,11.099c-1.156,0.809-1.734,1.214,0.737,5.506c2.471,4.292,53.371,96.465,53.371,96.465
	s1.518,2.991,6.417,0.434c4.898-2.559,14.855-7.891,17.168-9.394c2.312-1.502,16.359-8.902,17.227-9.654
	c0.866-0.751,2.716-1.849,1.502-3.93C108.04,98.823,57.574,8.182,53.702,0.956z"/>
<path fill="#945622" d="M43.037,40.855c0.341,0.608,27.914,53.262,28.933,55.193c0.543,1.029,1.733,3.035,4.975,1.718
	c1.4-0.569,2.713-0.88,4.715-2.867c0.951-0.945,1.269-2.288,0.658-3.477c0,0-29.367-56.419-32.025-59.771
	c0,0-1.647-2.587-2.297-3.107c-0.651-0.521-2.675-1.431-4.958-0.39c-2.282,1.041-3.063,1.561-3.67,2.645
	c-0.607,1.083-0.911,2.471-0.347,3.642C39.583,35.611,42.565,40.017,43.037,40.855z"/>
<path fill="#FFCBA4" d="M63.299,107.146c2.081-5.896,5.723-13.353,10.751-16.648c5.03-3.295,10.405-7.167,10.059-18.613
	c0,0,0-4.972-0.347-6.417c-0.348-1.445-3.989-3.526-4.278-5.029c-0.289-1.502,0.116-1.734-1.328-2.833
	c-1.445-1.098-3.7-0.867-3.874-2.428c-0.173-1.561,0.463-3.468-1.04-4.855c-1.503-1.388-2.081-1.272-4.74-1.503
	c-2.659-0.231-2.428-2.66-2.428-2.66s1.733-4.277,0.23-6.995s-7.572-2.602-9.48,0.868c-1.908,3.468-2.312,3.814-3.468,7.11
	c-1.156,3.295-4.162,6.878-4.162,6.878s-1.733-6.821-3.757-9.942c-2.023-3.122-4.856-6.532-7.399-5.896
	c-2.543,0.636-4.047,1.966-2.948,4.335c1.099,2.37,4.798,5.492,5.607,9.654c0.809,4.162,1.271,7.746,1.098,9.653
	s-0.405,4.104,0.867,6.185c1.272,2.082,1.561,4.452,1.561,6.186c0,1.734,1.676,4.104,2.254,5.434s1.215,1.503-1.618,5.781
	c-2.833,4.278-5.145,7.631-6.358,9.307c-1.214,1.676-4.336,8.093-6.243,10.751c-1.908,2.66-11.041,13.47-17.688,18.498
	c0,0-14.164,11.996-14.568,12.313l0,62.604c28.739-24.959,43.229-52.237,48.962-62.662"/>
<path fill="#FFE0B8" d="M34.964,42.228c0,0,0.327-1.024,1.021-1.609s1.17-0.715,1.452-0.78c0.282-0.065,1.821,1.409,2.276,2.254
	c0.455,0.846-0.173,2.146-0.802,2.645c-0.628,0.499-1.601,1.023-2.132,0.32C36.779,45.057,35.171,42.982,34.964,42.228z"/>
</svg>
