<?xml version="1.0" encoding="utf-8"?>
<!-- Generator: Adobe Illustrator 15.0.0, SVG Export Plug-In . SVG Version: 6.00 Build 0)  -->
<!DOCTYPE svg PUBLIC "-//W3C//DTD SVG 1.1//EN" "http://www.w3.org/Graphics/SVG/1.1/DTD/svg11.dtd">
<svg version="1.1" id="Layer_1" xmlns="http://www.w3.org/2000/svg" xmlns:xlink="http://www.w3.org/1999/xlink" x="0px" y="0px"
	 width="110px" height="200px" viewBox="0 0 110 200" enable-background="new 0 0 110 200" xml:space="preserve">
<path fill="#3C3D37" d="M0.401,100.823c-1.214,2.082,0.636,3.18,1.502,3.93c0.868,0.752,14.916,8.152,17.229,9.654
	s12.27,6.834,17.168,9.393c4.898,2.557,6.416-0.434,6.416-0.434S93.613,31.192,96.084,26.9s1.893-4.697,0.736-5.506
	s-12.023-7.053-19.191-11.099c-7.17-4.046-17.689-9.249-19.482-10.116c-1.791-0.867-2.195,0.694-2.195,0.694
	C52.079,8.1,1.616,98.743,0.401,100.823z"/>
<path fill="#945622" d="M70.633,34.358c0.564-1.171,0.26-2.559-0.348-3.642c-0.607-1.084-1.387-1.604-3.67-2.645
	s-4.307-0.131-4.957,0.39c-0.65,0.52-2.297,3.107-2.297,3.107C56.703,34.92,27.337,91.34,27.337,91.34
	c-0.611,1.189-0.293,2.532,0.658,3.477c2.002,1.987,3.314,2.299,4.715,2.867c3.242,1.316,4.432-0.689,4.975-1.719
	c1.02-1.93,28.59-54.585,28.932-55.193C67.09,39.934,70.07,35.528,70.633,34.358z"/>
<path fill="#FFCBA4" d="M60.693,136.14c5.732,10.424,20.223,37.701,48.963,62.658l-0.002-62.604
	c-0.404-0.316-14.568-12.312-14.568-12.312c-6.646-5.027-15.779-15.838-17.688-18.496s-5.029-9.075-6.244-10.75
	c-1.213-1.676-3.525-5.029-6.357-9.307c-2.834-4.278-2.197-4.451-1.619-5.781s2.254-3.7,2.254-5.434
	c0-1.734,0.289-4.104,1.561-6.186c1.271-2.081,1.041-4.278,0.867-6.185c-0.172-1.907,0.289-5.491,1.098-9.653
	s4.508-7.284,5.607-9.654c1.098-2.369-0.406-3.699-2.949-4.335s-5.375,2.774-7.398,5.896c-2.023,3.121-3.756,9.942-3.756,9.942
	s-3.008-3.583-4.162-6.878c-1.157-3.295-1.56-3.642-3.469-7.109c-1.908-3.47-7.977-3.586-9.48-0.868
	c-1.502,2.718,0.231,6.995,0.231,6.995s0.231,2.429-2.428,2.66c-2.659,0.231-3.236,0.116-4.74,1.504
	c-1.503,1.387-0.867,3.294-1.04,4.855c-0.174,1.561-2.429,1.33-3.874,2.428c-1.443,1.099-1.039,1.331-1.328,2.833
	c-0.289,1.503-3.93,3.584-4.277,5.029c-0.348,1.446-0.348,6.417-0.348,6.417c-0.345,11.446,5.03,15.318,10.061,18.613
	c5.028,3.295,8.67,10.751,10.752,16.647"/>
<path fill="#FFE0B8" d="M72.875,44.975c-0.531,0.703-1.504,0.179-2.133-0.32s-1.256-1.799-0.801-2.645
	c0.455-0.845,1.994-2.319,2.275-2.254c0.283,0.065,0.758,0.195,1.453,0.78c0.693,0.585,1.02,1.609,1.02,1.609
	C74.482,42.898,72.875,44.974,72.875,44.975z"/>
</svg>
